<?xml version="1.0" encoding="UTF-8" standalone="no"?>
<!-- Generator: Adobe Illustrator 23.0.1, SVG Export Plug-In . SVG Version: 6.00 Build 0)  -->

<svg
   xmlns:dc="http://purl.org/dc/elements/1.1/"
   xmlns:cc="http://creativecommons.org/ns#"
   xmlns:rdf="http://www.w3.org/1999/02/22-rdf-syntax-ns#"
   xmlns:svg="http://www.w3.org/2000/svg"
   xmlns="http://www.w3.org/2000/svg"
   xmlns:sodipodi="http://sodipodi.sourceforge.net/DTD/sodipodi-0.dtd"
   xmlns:inkscape="http://www.inkscape.org/namespaces/inkscape"
   version="1.1"
   id="Layer_1"
   x="0px"
   y="0px"
   viewBox="0 0 1200 160"
   xml:space="preserve"
   sodipodi:docname="Logo_2.svg"
   width="1200"
   height="160"
   inkscape:version="0.92.3 (2405546, 2018-03-11)"><metadata
   id="metadata80"><rdf:RDF><cc:Work
       rdf:about=""><dc:format>image/svg+xml</dc:format><dc:type
         rdf:resource="http://purl.org/dc/dcmitype/StillImage" /><dc:title></dc:title></cc:Work></rdf:RDF></metadata><defs
   id="defs78" /><sodipodi:namedview
   pagecolor="#ffffff"
   bordercolor="#666666"
   borderopacity="1"
   objecttolerance="10"
   gridtolerance="10"
   guidetolerance="10"
   inkscape:pageopacity="0"
   inkscape:pageshadow="2"
   inkscape:window-width="1920"
   inkscape:window-height="1001"
   id="namedview76"
   showgrid="false"
   inkscape:zoom="0.22690763"
   inkscape:cx="747"
   inkscape:cy="82.550003"
   inkscape:window-x="-9"
   inkscape:window-y="-9"
   inkscape:window-maximized="1"
   inkscape:current-layer="Layer_1" />
<style
   type="text/css"
   id="style2">
	.st0{fill:url(#SVGID_1_);}
	.st1{fill:url(#SVGID_2_);}
	.st2{fill:url(#SVGID_3_);}
	.st3{fill:#FFFFFF;}
</style>


<g
   id="g924"
   transform="matrix(0.80004544,0,0,0.80004544,0.6013066,18.029625)"><g
     transform="translate(0,-5.10001)"
     id="g25">
	<linearGradient
   y2="98.723297"
   x2="131.7166"
   y1="98.723297"
   x1="28.928801"
   gradientUnits="userSpaceOnUse"
   id="SVGID_1_">
		<stop
   id="stop4"
   style="stop-color:#00A5BD"
   offset="0" />
		<stop
   id="stop6"
   style="stop-color:#005E78"
   offset="1" />
	</linearGradient>
	<path
   style="fill:url(#SVGID_1_)"
   inkscape:connector-curvature="0"
   id="path9"
   d="m 28.9,158.9 c 6.3,-6.1 12.5,-12.2 18.8,-18.2 11.5,-11 23,-22.1 34.5,-33.1 13.1,-12.5 26.1,-25.1 39.2,-37.6 0.2,-0.2 0.5,-0.3 0.8,-0.5 -0.1,-0.2 -0.2,-0.4 -0.3,-0.6 -11.6,3.4 -23.1,6.7 -35.1,10.2 2.1,-3.5 4,-6.8 5.9,-10.1 5.8,-9.9 11.7,-19.7 17.5,-29.5 0.4,-0.8 0.7,-1.4 1.7,-0.5 7,6.7 13,14.1 16.5,23.2 2.9,7.4 3.5,15.1 3.1,22.9 -0.6,15.5 -6.3,28.8 -17.4,39.6 -7.4,7.2 -16.4,11.4 -26.4,13.4 -5,1 -10.1,1.5 -15.1,2.5 -8.4,1.6 -16.2,4.9 -23.7,8.8 -6.4,3.3 -12.9,6.4 -19.3,9.6 -0.2,0.1 -0.4,0.1 -0.7,-0.1 z"
   class="st0" />
	<linearGradient
   y2="66.008598"
   x2="115.5246"
   y1="66.008598"
   x1="12.4032"
   gradientUnits="userSpaceOnUse"
   id="SVGID_2_">
		<stop
   id="stop11"
   style="stop-color:#00A5BD"
   offset="0" />
		<stop
   id="stop13"
   style="stop-color:#005E78"
   offset="1" />
	</linearGradient>
	<path
   style="fill:url(#SVGID_2_)"
   inkscape:connector-curvature="0"
   id="path16"
   d="m 115.5,5.5 c -31.4,30.2 -62.7,60.2 -94,90.3 0,0.1 0.1,0.2 0.1,0.3 11.7,-3.4 23.4,-6.8 35.1,-10.2 0.1,0.1 0.2,0.2 0.2,0.3 C 49,99.6 41,113 33,126.6 c -3.1,-3 -5.8,-6.2 -8.3,-9.5 C 18.1,108.2 14.1,98.4 12.8,87.4 10,64.6 22.6,40.7 42.2,31.4 c 6.5,-3.1 13.2,-5.2 20.3,-5.9 11,-1.1 21.2,-4.6 31,-9.4 7,-3.4 13.9,-7 20.9,-10.4 0.2,-0.2 0.5,-0.4 1.1,-0.2 z"
   class="st1" />
	<linearGradient
   y2="159.286"
   x2="29.6964"
   y1="159.286"
   x1="28.3353"
   gradientUnits="userSpaceOnUse"
   id="SVGID_3_">
		<stop
   id="stop18"
   style="stop-color:#00A5BD"
   offset="0" />
		<stop
   id="stop20"
   style="stop-color:#005E78"
   offset="1" />
	</linearGradient>
	<path
   style="fill:url(#SVGID_3_)"
   inkscape:connector-curvature="0"
   id="path23"
   d="m 28.9,158.9 c 0.3,0 0.5,0 0.8,0 -0.4,0.2 -0.9,0.5 -1.4,0.8 0,-0.6 0.4,-0.6 0.6,-0.8 z"
   class="st2" />
</g><g
     transform="translate(0,-5.10001)"
     id="g49">
	<path
   style="fill:#ffffff"
   inkscape:connector-curvature="0"
   id="path27"
   d="m 138,134.2 c 0,-0.5 0.4,-1.2 1.1,-2 0.7,-0.9 1.6,-1.7 2.6,-2.6 -2.4,-1.5 -3.6,-3.3 -3.6,-5.2 v -20.7 c 0,-3.5 1.1,-6.7 3.2,-9.7 2.1,-3 4.7,-5.6 7.6,-7.8 3,-2.2 6.1,-3.9 9.3,-5.2 3.2,-1.3 5.9,-1.9 8.2,-1.9 H 242 c 0.7,0 1.5,0.3 2.5,0.9 1,0.6 1.9,1.3 2.8,2.1 0.9,0.8 1.7,1.6 2.3,2.4 0.6,0.8 0.9,1.4 0.9,1.8 v 13.8 c 0,0.9 -0.3,1.8 -1,2.7 -0.7,0.9 -1.4,1.8 -2.2,2.7 0.8,0.7 1.5,1.6 2.2,2.6 0.7,1 1,2.1 1,3.1 v 37.3 c 0,0.8 -0.3,1.6 -0.8,2.5 -0.6,0.9 -1.3,1.6 -2.1,2.4 -0.9,0.7 -1.8,1.3 -2.9,1.8 -1.1,0.4 -2.2,0.7 -3.2,0.7 h -94.4 c -1,0 -2,-0.3 -3.1,-0.8 -1.1,-0.5 -2,-1.2 -2.9,-2 -0.9,-0.8 -1.6,-1.6 -2.1,-2.5 -0.6,-0.9 -0.8,-1.6 -0.8,-2.4 v -14 z m 2,0 v 13.9 c 0,0.7 0.2,1.3 0.6,2 0.4,0.7 0.9,1.3 1.6,1.9 0.7,0.6 1.4,1.1 2.3,1.5 0.9,0.4 1.7,0.6 2.5,0.6 h 94.4 c 0.9,0 1.8,-0.2 2.6,-0.5 0.8,-0.4 1.6,-0.8 2.3,-1.3 0.7,-0.5 1.3,-1.1 1.7,-1.8 0.4,-0.7 0.6,-1.4 0.6,-2 v -37.3 c 0,-1.1 -0.4,-2.2 -1.2,-3.2 -0.8,-1 -1.9,-1.8 -3.2,-2.5 1.3,-0.6 2.4,-1.5 3.2,-2.6 0.8,-1.1 1.2,-2 1.2,-2.7 V 86.3 c 0,-0.3 -0.2,-0.8 -0.7,-1.5 -0.5,-0.6 -1,-1.3 -1.7,-1.9 -0.7,-0.6 -1.4,-1.2 -2.1,-1.6 -0.7,-0.5 -1.4,-0.7 -2,-0.7 h -75.6 c -2,0 -4.5,0.6 -7.5,1.8 -3,1.2 -5.9,2.8 -8.7,4.9 -2.8,2.1 -5.1,4.5 -7.1,7.3 -2,2.8 -2.9,5.8 -2.9,9.1 v 20.7 c 0,0.7 0.5,1.6 1.4,2.6 0.9,1 2,1.8 3.2,2.4 -1.2,0.7 -2.3,1.6 -3.2,2.7 -1.3,1 -1.7,1.7 -1.7,2.1 z m 73,-2.9 c 0.5,0 1,-0.1 1.6,-0.2 0.6,-0.2 0.8,-0.7 0.8,-1.6 0,-0.6 -0.1,-1 -0.3,-1.2 -0.2,-0.1 -0.5,-0.3 -0.9,-0.4 -0.2,-0.1 -0.7,-0.2 -1.4,-0.5 h -65.5 c -0.8,0 -1.7,-0.3 -2.6,-1 -0.9,-0.7 -1.4,-1.4 -1.4,-2 v -20.7 c 0,-2.8 0.9,-5.5 2.6,-8 1.7,-2.5 3.8,-4.6 6.2,-6.5 2.4,-1.8 4.9,-3.3 7.5,-4.3 2.6,-1.1 4.8,-1.6 6.5,-1.6 h 75.6 c 0.5,0 1.1,0.4 1.9,1.2 0.8,0.8 1.1,1.4 1.1,1.8 v 13.8 c 0,0.7 -0.4,1.4 -1.1,2.2 -0.8,0.8 -1.5,1.2 -2.3,1.2 h -62.2 c -0.8,0 -1.8,0.3 -3.1,0.8 -1.3,0.5 -1.9,1.2 -1.9,2.1 0,0.7 0.4,1 1.1,1.1 H 241 c 0.8,0 1.6,0.4 2.5,1.1 0.9,0.7 1.3,1.6 1.3,2.6 v 37.3 c 0,0.7 -0.4,1.3 -1.2,2 -0.8,0.7 -1.6,1 -2.4,1 h -94.4 c -0.9,0 -1.7,-0.4 -2.4,-1.2 -0.7,-0.8 -1.1,-1.5 -1.1,-2.2 v -13.9 c 0,-0.3 0.4,-0.9 1.1,-1.7 0.8,-0.8 1.4,-1.2 1.9,-1.2 z m -0.6,-1 -0.3,0.2 -0.2,-0.1 v -0.2 c 0.3,0 0.4,0 0.5,0.1 z"
   class="st3" />
	<path
   style="fill:#ffffff"
   inkscape:connector-curvature="0"
   id="path29"
   d="m 336.8,155.7 c -2.1,0 -4.2,-0.8 -6.1,-2.4 -2,-1.6 -2.9,-3.5 -2.9,-5.7 v -5.4 h -31.6 v 5.4 c 0,2.3 -1,4.2 -3,5.7 -2,1.5 -4.1,2.3 -6.3,2.3 h -21.7 c -2.2,0 -4.3,-0.8 -6.3,-2.3 -2,-1.5 -3,-3.4 -3,-5.7 V 86.3 c 0,-0.8 0.3,-1.6 0.8,-2.5 0.5,-0.9 1.2,-1.6 2,-2.4 0.9,-0.7 1.8,-1.3 2.9,-1.8 1.1,-0.4 2.3,-0.7 3.5,-0.7 h 22 c 1.1,0 2.2,0.2 3.3,0.7 1.1,0.4 2.1,1 2.9,1.8 0.9,0.7 1.6,1.5 2.1,2.4 0.6,0.9 0.8,1.7 0.8,2.5 v 27.3 h 31.6 V 86.3 c 0,-0.8 0.3,-1.6 0.8,-2.5 0.6,-0.9 1.2,-1.6 2,-2.4 0.8,-0.7 1.7,-1.3 2.8,-1.8 1.1,-0.4 2.1,-0.7 3.2,-0.7 H 359 c 1,0 2.1,0.2 3.2,0.7 1.1,0.4 2.1,1 2.9,1.8 0.9,0.7 1.6,1.5 2.1,2.4 0.6,0.9 0.8,1.7 0.8,2.5 v 61.4 c 0,2.2 -1,4.1 -2.9,5.7 -2,1.6 -4.1,2.4 -6.3,2.4 h -22 z m 0,-1.5 h 22 c 1.7,0 3.3,-0.7 4.9,-2 1.6,-1.3 2.3,-2.8 2.3,-4.4 V 86.3 c 0,-0.6 -0.2,-1.3 -0.6,-2 -0.4,-0.7 -1,-1.3 -1.7,-1.8 -0.7,-0.5 -1.5,-1 -2.3,-1.3 -0.8,-0.4 -1.7,-0.5 -2.6,-0.5 h -22.3 c -1.7,0 -3.3,0.6 -4.8,1.9 -1.5,1.3 -2.2,2.5 -2.2,3.8 v 28.7 H 294 V 86.3 c 0,-1.3 -0.8,-2.6 -2.3,-3.8 -1.5,-1.3 -3.2,-1.9 -5,-1.9 h -22 c -1.8,0 -3.5,0.6 -5,1.9 -1.5,1.3 -2.3,2.5 -2.3,3.8 v 61.4 c 0,1.6 0.8,3.1 2.3,4.4 1.6,1.3 3.2,2 5.1,2 h 21.7 c 1.8,0 3.5,-0.7 5.1,-2 1.6,-1.3 2.3,-2.8 2.3,-4.4 v -6.9 h 35.5 v 6.9 c 0,1.6 0.8,3.1 2.3,4.4 1.8,1.4 3.4,2.1 5.1,2.1 z m -6,-16.2 h -37.6 c -0.6,0 -1.2,0.2 -1.7,0.7 -0.6,0.4 -0.8,0.9 -0.8,1.3 v 7.8 c 0,1 -0.4,1.8 -1.2,2.6 -0.8,0.8 -1.7,1.2 -2.6,1.2 h -21.7 c -0.9,0 -1.8,-0.4 -2.6,-1.2 -0.9,-0.8 -1.3,-1.6 -1.3,-2.6 V 86.3 c 0,-0.6 0.4,-1.3 1.1,-2 0.8,-0.7 1.6,-1 2.6,-1 h 22 c 1,0 1.9,0.3 2.6,1 0.7,0.7 1.1,1.4 1.1,2 v 29.6 c 0,0.4 0.3,0.8 0.8,1.3 0.6,0.4 1.1,0.7 1.6,0.7 H 331 c 0.5,0 1,-0.2 1.5,-0.7 0.5,-0.4 0.8,-0.9 0.8,-1.3 V 86.3 c 0,-0.6 0.4,-1.3 1.1,-2 0.8,-0.7 1.5,-1 2.3,-1 H 359 c 0.8,0 1.6,0.3 2.4,1 0.8,0.7 1.2,1.4 1.2,2 v 61.4 c 0,1 -0.4,1.8 -1.3,2.6 -0.9,0.8 -1.7,1.2 -2.5,1.2 h -22 c -0.8,0 -1.6,-0.4 -2.4,-1.2 -0.8,-0.8 -1.2,-1.6 -1.2,-2.6 v -7.8 c 0,-0.4 -0.3,-0.8 -0.8,-1.3 -0.5,-0.4 -1,-0.6 -1.6,-0.6 z"
   class="st3" />
	<path
   style="fill:#ffffff"
   inkscape:connector-curvature="0"
   id="path31"
   d="m 485.8,131.1 c 0,3.5 -1.1,6.7 -3.2,9.7 -2.1,3 -4.7,5.6 -7.7,7.8 -3,2.2 -6.1,3.9 -9.4,5.2 -3.2,1.3 -5.9,1.9 -8.2,1.9 h -55.7 c -2.2,0 -4.9,-0.6 -8.2,-1.9 -3.2,-1.3 -6.3,-3 -9.3,-5.2 -3,-2.2 -5.5,-4.8 -7.6,-7.8 -2.1,-3 -3.2,-6.2 -3.2,-9.7 V 86.3 c 0,-0.8 0.3,-1.6 0.8,-2.5 0.5,-0.9 1.2,-1.6 2,-2.4 0.9,-0.7 1.8,-1.3 2.9,-1.8 1.1,-0.4 2.3,-0.7 3.5,-0.7 h 94.1 c 1,0 2.1,0.2 3.2,0.7 1.1,0.4 2.1,1 2.9,1.8 0.9,0.7 1.6,1.5 2.1,2.4 0.6,0.9 0.8,1.7 0.8,2.5 v 44.8 z m -1.9,-44.8 c 0,-0.6 -0.2,-1.3 -0.6,-2 -0.4,-0.7 -1,-1.3 -1.7,-1.8 -0.7,-0.5 -1.5,-1 -2.3,-1.3 -0.8,-0.4 -1.7,-0.5 -2.6,-0.5 h -94.1 c -1.8,0 -3.5,0.6 -5,1.9 -1.5,1.3 -2.3,2.5 -2.3,3.8 v 44.8 c 0,3.2 1,6.3 2.9,9.1 2,2.8 4.3,5.2 7.1,7.3 2.8,2.1 5.7,3.7 8.7,4.9 3,1.2 5.5,1.8 7.5,1.8 h 55.7 c 2.1,0 4.7,-0.6 7.6,-1.8 3,-1.2 5.9,-2.8 8.7,-4.9 2.8,-2.1 5.2,-4.5 7.2,-7.3 2,-2.8 2.9,-5.8 2.9,-9.1 V 86.3 Z m -3.5,44.8 c 0,2.8 -0.9,5.5 -2.6,8 -1.7,2.5 -3.8,4.6 -6.2,6.5 -2.4,1.8 -4.9,3.3 -7.5,4.3 -2.6,1.1 -4.8,1.6 -6.6,1.6 h -55.7 c -1.7,0 -3.9,-0.5 -6.5,-1.6 -2.6,-1.1 -5.1,-2.5 -7.5,-4.3 -2.4,-1.8 -4.5,-4 -6.2,-6.5 -1.7,-2.5 -2.6,-5.1 -2.6,-8 V 86.3 c 0,-0.6 0.4,-1.3 1.1,-2 0.8,-0.7 1.6,-1 2.6,-1 h 94.1 c 0.8,0 1.6,0.3 2.4,1 0.8,0.7 1.2,1.4 1.2,2 z m -72,-4.9 c 0,0.4 0.2,0.9 0.7,1.5 0.5,0.6 1,1.1 1.7,1.6 0.7,0.5 1.3,1 2,1.4 0.7,0.4 1.4,0.6 2,0.6 h 30 c 0.6,0 1.2,-0.2 1.9,-0.5 0.7,-0.4 1.3,-0.8 1.9,-1.3 0.6,-0.5 1.1,-1 1.6,-1.5 0.5,-0.5 0.7,-1 0.8,-1.4 v -21.2 c -0.1,-0.4 -0.4,-0.8 -0.9,-1.2 -0.5,-0.4 -1,-0.6 -1.5,-0.6 H 411 c -0.6,0 -1.2,0.2 -1.7,0.6 -0.6,0.4 -0.8,0.9 -0.8,1.3 v 20.7 z m 39.1,0 c -0.2,0.4 -0.6,0.9 -1.1,1.5 -0.6,0.6 -1.1,0.9 -1.6,0.9 h -30 c -0.4,0 -1,-0.3 -1.7,-1 -0.7,-0.6 -1.1,-1.1 -1.1,-1.5 v -20 h 35.5 z m -2.7,0.8 c 0.1,0 0.3,-0.1 0.5,-0.4 0.2,-0.2 0.3,-0.5 0.3,-0.7 V 107.8 H 414 v 18.4 c 0,0.6 0.3,0.9 0.8,0.9 h 30 z"
   class="st3" />
	<path
   style="fill:#ffffff"
   inkscape:connector-curvature="0"
   id="path33"
   d="m 568.6,117.1 c -1.1,-0.5 -2,-1.2 -2.8,-1.9 -0.8,-0.8 -1.4,-1.6 -1.9,-2.6 -0.5,-1 -0.7,-1.9 -0.7,-2.8 v -1.9 H 531.6 V 126 c 0,0.2 0.1,0.4 0.4,0.7 0.3,0.3 0.5,0.4 0.7,0.4 h 61.7 c 0.9,0 1.9,0.2 2.9,0.7 1,0.5 2,1.1 2.9,1.8 0.9,0.7 1.7,1.5 2.3,2.4 0.6,0.9 0.9,1.6 0.9,2.4 v 14.1 c 0,0.8 -0.3,1.6 -0.8,2.5 -0.6,0.9 -1.3,1.6 -2.1,2.4 -0.9,0.7 -1.8,1.3 -2.9,1.8 -1.1,0.4 -2.2,0.7 -3.2,0.7 h -74.9 c -2.2,0 -4.9,-0.6 -8.2,-1.9 -3.2,-1.3 -6.3,-3 -9.4,-5.2 -3,-2.2 -5.6,-4.8 -7.7,-7.9 -2.1,-3 -3.2,-6.2 -3.2,-9.7 V 86.3 c 0,-0.8 0.3,-1.6 0.8,-2.5 0.5,-0.9 1.2,-1.6 2,-2.4 0.9,-0.7 1.8,-1.3 2.9,-1.8 1.1,-0.4 2.3,-0.7 3.5,-0.7 h 94.1 c 1,0 2.1,0.2 3.2,0.7 1.1,0.4 2.1,1 2.9,1.8 0.9,0.7 1.6,1.5 2.1,2.4 0.6,0.9 0.8,1.7 0.8,2.5 v 23.5 c 0,2.2 -1,4.1 -2.9,5.7 -2,1.6 -4.1,2.4 -6.3,2.4 h -22.2 c -1,0 -2.2,-0.3 -3.3,-0.8 z m 30.7,-2.8 c 1.6,-1.3 2.3,-2.8 2.3,-4.4 V 86.3 c 0,-0.6 -0.2,-1.3 -0.6,-2 -0.4,-0.7 -1,-1.3 -1.7,-1.8 -0.7,-0.5 -1.5,-1 -2.3,-1.3 -0.8,-0.4 -1.7,-0.5 -2.6,-0.5 h -94.1 c -1.8,0 -3.5,0.6 -5,1.9 -1.5,1.3 -2.3,2.5 -2.3,3.8 V 131 c 0,3.3 1,6.4 2.9,9.2 2,2.8 4.4,5.2 7.2,7.3 2.8,2.1 5.7,3.7 8.8,4.9 3,1.2 5.5,1.8 7.5,1.8 h 74.9 c 0.9,0 1.8,-0.2 2.6,-0.5 0.8,-0.4 1.6,-0.8 2.3,-1.3 0.7,-0.5 1.3,-1.1 1.7,-1.8 0.4,-0.7 0.6,-1.4 0.6,-2 v -14.1 c 0,-0.6 -0.2,-1.2 -0.7,-1.9 -0.5,-0.7 -1,-1.3 -1.7,-1.9 -0.7,-0.6 -1.5,-1 -2.3,-1.4 -0.9,-0.4 -1.6,-0.5 -2.3,-0.5 h -61.7 c -0.5,0 -1.1,-0.4 -1.9,-1.1 -0.8,-0.7 -1.1,-1.3 -1.1,-1.6 v -19.7 h 35.5 v 3.5 c 0,1.5 0.7,2.9 2,4.4 1.3,1.5 3,2.2 5,2.2 h 22.2 c 1.6,-0.2 3.2,-0.9 4.8,-2.2 z m -31.3,-10 c -0.5,-0.4 -1,-0.6 -1.5,-0.8 h -37.7 c -0.6,0 -1.2,0.2 -1.7,0.5 -0.5,0.4 -0.8,0.8 -0.9,1.2 v 20.7 c 0,0.4 0.3,0.9 0.8,1.5 0.5,0.6 1.1,1.2 1.8,1.8 0.7,0.6 1.4,1.1 2.2,1.5 0.8,0.4 1.4,0.6 1.9,0.6 h 61.7 c 0.8,0 1.6,0.4 2.4,1.1 0.8,0.7 1.2,1.4 1.2,1.9 v 14.1 c 0,0.7 -0.4,1.3 -1.2,2 -0.8,0.7 -1.6,1 -2.4,1 h -74.9 c -1.8,0 -4,-0.5 -6.6,-1.6 -2.6,-1.1 -5.1,-2.5 -7.5,-4.3 -2.4,-1.8 -4.5,-4 -6.2,-6.5 -1.7,-2.5 -2.6,-5.2 -2.6,-8.1 V 86.3 c 0,-0.6 0.4,-1.3 1.1,-2 0.8,-0.7 1.6,-1 2.6,-1 h 94.1 c 0.8,0 1.6,0.3 2.4,1 0.8,0.7 1.2,1.4 1.2,2 v 23.5 c 0,1 -0.4,1.8 -1.3,2.6 -0.9,0.7 -1.7,1.1 -2.5,1.1 h -22.2 c -1.1,0 -2,-0.4 -2.6,-1.3 -0.6,-0.9 -0.9,-1.7 -0.9,-2.5 v -4.3 c 0,-0.3 -0.2,-0.7 -0.7,-1.1 z"
   class="st3" />
	<path
   style="fill:#ffffff"
   inkscape:connector-curvature="0"
   id="path35"
   d="m 679.3,79.9 c 1.9,-0.6 3.6,-0.9 5.4,-0.9 H 715 c 2.1,0.7 3.7,1.6 4.8,3 1.1,1.3 1.6,2.8 1.6,4.3 0,0.7 -0.1,1.4 -0.3,2.1 -0.2,0.7 -0.6,1.4 -1.2,2 l -17.4,15.9 c 2.4,0.9 4.7,2 6.9,3.4 2.2,1.4 4.2,2.9 6,4.5 1.8,1.6 3.2,3.3 4.2,5.2 1.1,1.8 1.6,3.6 1.6,5.3 v 23.9 c 0,0.8 -0.3,1.6 -0.9,2.5 -0.6,0.9 -1.4,1.6 -2.3,2.3 -0.9,0.7 -1.9,1.2 -2.9,1.6 -1,0.4 -1.9,0.7 -2.7,0.7 H 691 c -0.9,0 -1.9,-0.2 -3,-0.5 -1.1,-0.4 -2.1,-0.9 -3.1,-1.5 -1,-0.6 -1.8,-1.4 -2.5,-2.3 -0.7,-0.9 -1.1,-1.8 -1.1,-2.7 V 134 c 0,-0.6 -0.1,-1.1 -0.2,-1.5 -0.1,-0.4 -0.3,-0.7 -0.5,-0.7 h -31.3 v 15.9 c 0,2.3 -1,4.2 -3,5.7 -2,1.5 -4.1,2.3 -6.3,2.3 h -21.7 c -2.2,0 -4.3,-0.8 -6.3,-2.3 -2,-1.5 -3,-3.4 -3,-5.7 V 86.3 c 0,-0.8 0.3,-1.6 0.8,-2.5 0.5,-0.9 1.2,-1.6 2,-2.4 0.9,-0.7 1.8,-1.3 2.9,-1.8 1.1,-0.4 2.3,-0.7 3.5,-0.7 h 22 c 1.1,0 2.2,0.2 3.3,0.7 1.1,0.4 2.1,1 2.9,1.8 0.9,0.7 1.6,1.5 2.1,2.4 0.6,0.9 0.8,1.7 0.8,2.5 v 16.6 h 3.2 l 22.2,-20.3 c 1.3,-1.2 2.7,-2.1 4.6,-2.7 z m -25.6,24.6 h -6.2 V 86.3 c 0,-1.3 -0.8,-2.6 -2.3,-3.8 -1.5,-1.3 -3.2,-1.9 -5,-1.9 h -22 c -1.8,0 -3.5,0.6 -5,1.9 -1.5,1.3 -2.3,2.5 -2.3,3.8 v 61.4 c 0,1.6 0.8,3.1 2.3,4.4 1.6,1.3 3.2,2 5.1,2 H 640 c 1.8,0 3.5,-0.7 5.1,-2 1.6,-1.3 2.3,-2.8 2.3,-4.4 v -17.5 h 33.2 c 0.6,0 1.2,0.4 1.7,1.2 0.6,0.8 0.8,1.7 0.8,2.6 v 14.7 c 0,0.7 0.3,1.4 0.8,2.1 0.6,0.7 1.2,1.2 2,1.8 0.8,0.5 1.6,0.9 2.5,1.2 0.9,0.3 1.7,0.4 2.4,0.4 h 21.4 c 0.6,0 1.3,-0.2 2.1,-0.5 0.8,-0.3 1.6,-0.7 2.3,-1.2 0.7,-0.5 1.3,-1.1 1.8,-1.7 0.5,-0.6 0.8,-1.3 0.8,-2.1 v -23.9 c 0,-1.7 -0.6,-3.4 -1.8,-5.2 -1.2,-1.8 -2.7,-3.5 -4.6,-5.2 -1.9,-1.7 -4,-3.1 -6.4,-4.4 -2.4,-1.3 -4.8,-2.3 -7.2,-3 l 18.9,-17.3 c 0.5,-0.6 0.8,-1.2 1,-1.8 0.2,-0.5 0.2,-1 0.2,-1.5 0,-1.1 -0.4,-2.3 -1.1,-3.4 -0.8,-1.1 -1.9,-1.9 -3.4,-2.3 h -30.2 c -1.5,0 -3.1,0.3 -4.7,0.8 -1.6,0.5 -2.9,1.4 -3.8,2.5 h -0.2 z m 27.7,-20.7 c 1.1,-0.4 2.1,-0.5 3.2,-0.5 H 714 c 0.7,0.2 1.2,0.7 1.4,1.2 0.3,0.6 0.4,1.2 0.4,1.8 0,0.7 -0.2,1.4 -0.6,1.9 L 693,108.6 c 2.2,0.1 4.7,0.6 7.3,1.6 2.7,1 5.2,2.3 7.5,3.8 2.3,1.5 4.2,3.3 5.7,5.2 1.5,1.9 2.3,3.8 2.3,5.5 v 23.9 c 0,0.7 -0.4,1.4 -1.2,1.9 -0.8,0.6 -1.5,0.9 -2.1,0.9 H 691 c -0.8,0 -1.7,-0.3 -2.8,-0.8 -1.1,-0.5 -1.6,-1.2 -1.6,-2 v -14.7 c 0,-1.6 -0.6,-3.1 -1.8,-4.4 -1.2,-1.3 -2.6,-2 -4.1,-2 h -34.3 c -0.6,0 -1.2,0.2 -1.7,0.6 -0.6,0.4 -0.8,0.8 -0.8,1.2 v 18.4 c 0,1 -0.4,1.8 -1.2,2.6 -0.8,0.8 -1.7,1.2 -2.6,1.2 h -21.7 c -0.9,0 -1.8,-0.4 -2.6,-1.2 -0.9,-0.8 -1.3,-1.6 -1.3,-2.6 V 86.3 c 0,-0.6 0.4,-1.3 1.1,-2 0.8,-0.7 1.6,-1 2.6,-1 h 22 c 1,0 1.9,0.3 2.6,1 0.7,0.7 1.1,1.4 1.1,2 v 19 c 0,0.4 0.3,0.8 0.8,1.2 0.6,0.4 1.1,0.6 1.6,0.6 h 8.8 L 679,85.3 c 0.5,-0.6 1.4,-1.1 2.4,-1.5 z"
   class="st3" />
	<path
   style="fill:#ffffff"
   inkscape:connector-curvature="0"
   id="path37"
   d="m 906.9,148 c -0.6,1 -1.4,1.9 -2.4,2.6 -0.9,0.7 -2,1.3 -3.2,1.7 -1.2,0.4 -2.3,0.6 -3.4,0.6 H 790.2 c -2.5,0 -4.6,-0.3 -6.2,-0.9 -1.6,-0.6 -3.2,-1.5 -4.6,-2.5 l -43,-63.3 c -0.7,-1.1 -1.1,-2.3 -1.1,-3.7 0,-3 2,-5.5 6,-7.4 h 29.6 c 2.1,0 4.1,0.3 6.1,0.8 2,0.5 3.6,1.8 4.9,3.8 l 29.6,43.2 h -0.2 l 0.6,1 h 1.6 L 788.2,86.3 c -0.7,-1.1 -1.1,-2.3 -1.1,-3.7 0,-3 2,-5.5 6,-7.4 h 29.5 c 2.2,0 4.3,0.3 6.3,0.8 2,0.5 3.6,1.8 4.9,3.8 l 29.8,43.2 h -0.2 l 0.6,1 h 0.3 V 82.4 c 0,-0.8 0.3,-1.7 0.9,-2.5 0.6,-0.9 1.3,-1.7 2.3,-2.4 0.9,-0.7 2,-1.3 3.1,-1.8 1.1,-0.5 2.3,-0.7 3.5,-0.7 H 898 c 1.3,0 2.5,0.2 3.6,0.7 1.1,0.5 2.2,1.1 3.1,1.8 0.9,0.7 1.7,1.5 2.3,2.4 0.6,0.9 0.9,1.7 0.9,2.5 v 62.3 c 0,1.2 -0.3,2.3 -1,3.3 z m -3.4,-69.5 c -1.6,-1.3 -3.4,-1.9 -5.5,-1.9 h -23.8 c -2,0 -3.8,0.6 -5.3,1.9 -1.6,1.3 -2.4,2.6 -2.4,3.9 v 42.9 h -3 c -0.2,-0.2 -0.5,-0.4 -0.9,-0.7 -0.4,-0.3 -0.8,-0.8 -1.3,-1.5 h 0.2 L 832,80.2 c -0.9,-1.5 -2.3,-2.5 -4,-2.9 -1.7,-0.5 -3.5,-0.7 -5.3,-0.7 h -29 c -2.9,1.3 -4.4,3.3 -4.4,5.8 0,1.2 0.4,2.3 1.1,3.1 l 26.7,39.8 h -5.6 c -0.2,-0.2 -0.4,-0.4 -0.7,-0.7 -0.3,-0.3 -0.7,-0.8 -1.2,-1.4 l -29.5,-43 c -0.9,-1.5 -2.2,-2.5 -3.9,-2.9 -1.7,-0.5 -3.4,-0.7 -5.2,-0.7 h -29.2 c -2.9,1.3 -4.4,3.3 -4.4,5.8 0,1.2 0.4,2.2 1.3,3.1 l -0.2,0.1 42.8,62.9 v -0.1 c 1.1,0.9 2.4,1.6 3.8,2.1 1.4,0.5 3.1,0.7 5.2,0.7 H 898 c 1.9,0 3.7,-0.7 5.3,-2 1.7,-1.4 2.5,-2.9 2.5,-4.5 V 82.4 c 0,-1.3 -0.7,-2.6 -2.3,-3.9 z m -2.8,68.9 c -0.9,0.8 -1.8,1.2 -2.7,1.2 H 790.2 c -1.6,0 -2.8,-0.2 -3.6,-0.5 -0.8,-0.3 -1.6,-0.7 -2.2,-1.1 L 741.7,84.2 v 0.1 c -0.4,-0.6 -0.6,-1.2 -0.6,-1.9 0,-1.4 0.6,-2.4 1.7,-3.1 h 28.1 c 1.1,0 2.2,0.1 3.2,0.4 1,0.2 1.9,0.9 2.6,1.9 l 29.5,43.2 v -0.1 c 0.7,0.8 1.5,1.6 2.2,2.2 0.7,0.7 1.5,1.1 2.4,1.2 h 8 c 1.9,0 2.8,-0.8 2.8,-2.3 L 793.7,84.2 v 0.1 c -0.4,-0.6 -0.6,-1.2 -0.6,-1.9 0,-1.4 0.6,-2.4 1.7,-3.1 h 27.9 c 1.1,0 2.2,0.1 3.3,0.4 1,0.2 1.9,0.9 2.7,1.9 l 29.8,43.2 v -0.1 c 0.6,0.8 1.3,1.6 2,2.2 0.7,0.7 1.5,1.1 2.4,1.2 h 4.9 c 1.7,0 2.5,-0.8 2.5,-2.3 V 82.4 c 0,-0.7 0.4,-1.3 1.2,-2 0.8,-0.7 1.7,-1.1 2.7,-1.1 H 898 c 1.1,0 2.1,0.4 2.9,1.1 0.8,0.7 1.2,1.4 1.2,2 v 62.3 c 0,1 -0.5,1.9 -1.4,2.7 z"
   class="st3" />
	<path
   style="fill:#ffffff"
   inkscape:connector-curvature="0"
   id="path39"
   d="m 1002.3,75.7 c 1.1,0.5 2.2,1.1 3.1,1.8 0.9,0.7 1.6,1.5 2.2,2.4 0.6,0.9 0.9,1.7 0.9,2.5 v 14.3 c 0,0.7 -0.3,1.5 -0.9,2.4 -0.6,0.9 -1.3,1.7 -2.2,2.4 -0.9,0.7 -1.9,1.4 -3.1,1.9 -1.2,0.5 -2.2,0.7 -3.3,0.7 h -16.8 v 19.5 H 999 c 1,0 2.1,0.2 3.3,0.7 1.1,0.5 2.2,1.1 3.1,1.9 0.9,0.7 1.6,1.5 2.2,2.4 0.6,0.9 0.9,1.7 0.9,2.4 v 14.3 c 0,0.8 -0.3,1.7 -0.9,2.5 -0.6,0.9 -1.3,1.7 -2.2,2.4 -0.9,0.7 -1.9,1.3 -3.1,1.8 -1.2,0.5 -2.3,0.7 -3.5,0.7 h -75.6 c -1.3,0 -2.5,-0.2 -3.7,-0.7 -1.2,-0.5 -2.3,-1.1 -3.1,-1.8 -0.9,-0.7 -1.6,-1.5 -2.1,-2.4 -0.5,-0.9 -0.8,-1.7 -0.8,-2.5 V 131 c 0,-0.7 0.3,-1.5 0.9,-2.4 0.6,-0.9 1.3,-1.7 2.3,-2.4 0.9,-0.7 2,-1.4 3.1,-1.9 1.1,-0.5 2.2,-0.7 3.4,-0.7 h 16.5 v -19.5 h -16.5 c -1.2,0 -2.3,-0.2 -3.4,-0.7 -1.1,-0.5 -2.1,-1.1 -3.1,-1.9 -0.9,-0.7 -1.7,-1.5 -2.3,-2.4 -0.6,-0.9 -0.9,-1.7 -0.9,-2.4 V 82.4 c 0,-0.8 0.3,-1.7 0.8,-2.5 0.5,-0.9 1.2,-1.7 2.1,-2.4 0.9,-0.7 1.9,-1.3 3.1,-1.8 1.2,-0.5 2.4,-0.7 3.7,-0.7 h 75.6 c 1.2,0 2.4,0.2 3.5,0.7 z m -82,50.2 c -0.9,0.4 -1.7,0.8 -2.4,1.4 -0.7,0.6 -1.3,1.2 -1.7,1.9 -0.5,0.7 -0.7,1.3 -0.7,1.9 v 14.3 c 0,1.3 0.8,2.6 2.4,3.9 1.6,1.3 3.3,1.9 5.3,1.9 h 75.6 c 1.9,0 3.6,-0.6 5.2,-1.9 1.6,-1.3 2.4,-2.6 2.4,-3.9 v -14.3 c 0,-0.6 -0.2,-1.2 -0.7,-1.9 -0.5,-0.7 -1,-1.3 -1.7,-1.9 -0.7,-0.6 -1.5,-1.1 -2.4,-1.4 -0.9,-0.4 -1.8,-0.6 -2.6,-0.6 H 980.2 V 103 c -0.1,-0.1 -0.3,-0.1 -0.5,-0.1 v -0.2 H 999 c 0.8,0 1.7,-0.2 2.6,-0.6 0.9,-0.4 1.7,-0.8 2.4,-1.4 0.7,-0.6 1.3,-1.2 1.7,-1.9 0.5,-0.7 0.7,-1.3 0.7,-2 V 82.4 c 0,-1.3 -0.8,-2.6 -2.4,-3.9 -1.6,-1.3 -3.3,-1.9 -5.2,-1.9 h -75.6 c -2,0 -3.8,0.6 -5.3,1.9 -1.6,1.3 -2.4,2.6 -2.4,3.9 v 14.3 c 0,0.7 0.2,1.3 0.7,2 0.5,0.7 1,1.3 1.7,1.9 0.7,0.6 1.5,1.1 2.4,1.4 0.9,0.4 1.8,0.6 2.7,0.6 h 19.4 c -0.3,0.2 -0.6,0.4 -0.9,0.4 v 21.8 h 0.2 c 0,0.2 0.1,0.4 0.2,0.4 v 0.2 h -18.8 c -0.9,-0.1 -1.9,0.1 -2.8,0.5 z m 81.2,-45.5 c 0.7,0.7 1.1,1.4 1.1,2 v 14.3 c 0,0.6 -0.4,1.2 -1.2,2 -0.8,0.7 -1.6,1.1 -2.4,1.1 h -19.4 c -0.6,0 -1.3,0.3 -1.9,0.9 -0.6,0.6 -1,1.2 -1.1,1.9 v 22.9 c 0.1,0.7 0.5,1.3 1.1,1.8 0.6,0.5 1.3,0.8 1.9,0.8 H 999 c 0.8,0 1.6,0.4 2.4,1.1 0.8,0.7 1.2,1.4 1.2,2 v 14.3 c 0,0.7 -0.4,1.3 -1.1,2 -0.7,0.7 -1.6,1.1 -2.7,1.1 h -75.6 c -1,0 -2,-0.3 -2.7,-1.1 -0.8,-0.7 -1.2,-1.4 -1.2,-2 v -14.3 c 0,-0.6 0.4,-1.2 1.3,-2 0.8,-0.7 1.7,-1.1 2.5,-1.1 h 19.1 c 0.5,0 1.1,-0.3 1.8,-0.8 0.7,-0.5 1.1,-1.1 1.3,-1.8 v -22.9 c -0.1,-0.7 -0.5,-1.3 -1.2,-1.9 -0.7,-0.6 -1.3,-0.9 -2,-0.9 H 923 c -0.8,0 -1.7,-0.4 -2.5,-1.1 -0.8,-0.7 -1.3,-1.4 -1.3,-2 V 82.4 c 0,-0.7 0.4,-1.3 1.2,-2 0.8,-0.7 1.7,-1.1 2.7,-1.1 h 75.6 c 1.2,0 2.1,0.4 2.8,1.1 z"
   class="st3" />
	<path
   style="fill:#ffffff"
   inkscape:connector-curvature="0"
   id="path41"
   d="m 1108.6,75.7 c 1.1,0.5 2.2,1.1 3.1,1.8 0.9,0.7 1.6,1.5 2.2,2.4 0.6,0.9 0.9,1.7 0.9,2.5 v 14.3 c 0,0.5 -0.2,1.1 -0.7,1.9 -0.5,0.7 -1.9,2 -4.2,3.9 -2.4,1.9 -6.1,4.5 -11.1,7.8 -5.1,3.3 -12.2,7.8 -21.3,13.4 h 28.1 c 1,0 2.1,0.2 3.2,0.7 1.1,0.5 2.1,1.1 3,1.9 0.9,0.7 1.6,1.5 2.2,2.4 0.6,0.9 0.9,1.7 0.9,2.4 v 14.3 c 0,0.8 -0.3,1.7 -0.9,2.5 -0.6,0.9 -1.3,1.7 -2.2,2.4 -0.9,0.7 -1.9,1.3 -3.1,1.8 -1.2,0.5 -2.3,0.7 -3.3,0.7 h -82 c -1.2,0 -2.3,-0.2 -3.5,-0.7 -1.2,-0.5 -2.1,-1.1 -3,-1.8 -0.8,-0.7 -1.5,-1.5 -2,-2.4 -0.5,-0.9 -0.8,-1.7 -0.8,-2.5 v -14.3 c 0,-0.3 0.3,-0.9 0.8,-1.7 0.5,-0.8 1.9,-2.1 4.2,-4.1 2.2,-1.9 5.7,-4.6 10.4,-8 4.7,-3.4 11.1,-7.8 19.2,-13.2 h -25.4 c -1,0 -2.1,-0.2 -3.2,-0.7 -1.1,-0.5 -2.1,-1.1 -2.9,-1.9 -0.8,-0.7 -1.5,-1.5 -2.1,-2.4 -0.6,-0.9 -0.9,-1.7 -0.9,-2.4 V 82.4 c 0,-0.8 0.3,-1.7 0.8,-2.5 0.5,-0.9 1.2,-1.7 2,-2.4 0.8,-0.7 1.8,-1.3 3,-1.8 1.1,-0.5 2.3,-0.7 3.5,-0.7 h 82 c 0.9,0 2,0.2 3.1,0.7 z m -90.4,2.8 c -1.5,1.3 -2.3,2.6 -2.3,3.9 v 14.3 c 0,0.7 0.2,1.3 0.6,2 0.4,0.7 1,1.3 1.6,1.9 0.7,0.6 1.5,1.1 2.4,1.4 0.9,0.4 1.7,0.6 2.6,0.6 h 30.9 c -9,5.9 -16.1,10.6 -21.2,14.2 -5.1,3.6 -8.9,6.4 -11.5,8.5 -2.5,2.1 -4.1,3.5 -4.6,4.3 -0.6,0.8 -0.9,1.3 -0.9,1.7 v 14.3 c 0,1.3 0.8,2.6 2.3,3.9 1.5,1.3 3.2,1.9 5.1,1.9 h 82 c 0.9,0 1.8,-0.2 2.7,-0.6 0.8,-0.4 1.6,-0.8 2.4,-1.4 0.7,-0.5 1.3,-1.2 1.7,-1.9 0.4,-0.7 0.6,-1.4 0.6,-2 v -14.3 c 0,-0.6 -0.2,-1.2 -0.6,-1.9 -0.4,-0.7 -1,-1.3 -1.7,-1.9 -0.7,-0.6 -1.5,-1.1 -2.4,-1.4 -0.8,-0.4 -1.7,-0.6 -2.5,-0.6 h -34.2 c 6.8,-4.1 12.5,-7.6 17.3,-10.6 4.7,-2.9 8.6,-5.4 11.6,-7.4 3,-2 5.4,-3.6 7.1,-4.9 1.7,-1.2 3,-2.2 3.8,-3 0.8,-0.7 1.3,-1.3 1.4,-1.7 0.2,-0.4 0.2,-0.7 0.2,-1.1 V 82.4 c 0,-0.7 -0.2,-1.3 -0.6,-2 -0.4,-0.7 -1,-1.3 -1.7,-1.9 -0.7,-0.5 -1.5,-1 -2.4,-1.4 -0.8,-0.4 -1.7,-0.6 -2.7,-0.6 h -82 c -1.8,0.1 -3.5,0.8 -5,2 z m 89.7,1.9 c 0.8,0.7 1.3,1.4 1.3,2 v 14.3 c 0,0.2 -0.1,0.5 -0.2,0.9 -0.2,0.3 -0.7,0.8 -1.6,1.5 -0.9,0.7 -2.4,1.7 -4.4,3 -2,1.3 -4.8,3.1 -8.3,5.4 -3.6,2.3 -8.1,5.1 -13.5,8.3 -5.4,3.3 -12.1,7.3 -20.1,12.1 h 44.5 c 0.8,0 1.6,0.4 2.4,1.1 0.8,0.7 1.2,1.4 1.2,2 v 14.3 c 0,0.7 -0.4,1.3 -1.3,2 -0.8,0.7 -1.7,1.1 -2.5,1.1 h -82 c -0.8,0 -1.7,-0.3 -2.5,-1.1 -0.8,-0.7 -1.3,-1.4 -1.3,-2 V 131 c 0,-0.2 0.1,-0.4 0.3,-0.7 0.2,-0.3 0.8,-0.9 1.7,-1.7 0.9,-0.8 2.4,-1.9 4.2,-3.2 1.9,-1.4 4.5,-3.2 7.8,-5.4 3.3,-2.2 7.4,-5 12.3,-8.3 4.9,-3.3 10.9,-7.3 18,-12 h -40.8 c -0.9,0 -1.8,-0.4 -2.5,-1.1 -0.7,-0.7 -1.1,-1.4 -1.1,-2 V 82.4 c 0,-0.7 0.4,-1.3 1.3,-2 0.8,-0.7 1.7,-1.1 2.5,-1.1 h 82 c 0.9,0 1.7,0.4 2.6,1.1 z"
   class="st3" />
	<path
   style="fill:#ffffff"
   inkscape:connector-curvature="0"
   id="path43"
   d="m 1160.6,78.7 v -0.1 c 1.5,-1.1 3,-1.9 4.6,-2.6 1.6,-0.7 3.7,-1 6.2,-1 h 60.1 c 1.1,0 2.3,0.2 3.5,0.7 1.1,0.5 2.2,1.1 3.1,1.8 0.9,0.7 1.7,1.6 2.3,2.6 0.6,1 0.9,2 0.9,3.1 v 62.3 c 0,0.8 -0.3,1.7 -0.9,2.5 -0.6,0.9 -1.3,1.7 -2.2,2.4 -0.9,0.7 -1.9,1.3 -3.1,1.8 -1.2,0.5 -2.3,0.7 -3.5,0.7 h -47.2 c -1,0 -2.1,-0.3 -3.2,-0.8 -1.1,-0.5 -2.1,-1.2 -3,-2 -0.9,-0.8 -1.6,-1.7 -2.2,-2.5 -0.6,-0.9 -0.9,-1.7 -0.9,-2.4 V 131 c 0,-0.4 0.3,-1 0.9,-1.9 0.6,-0.8 1.4,-1.6 2.4,-2.4 0.9,-0.8 1.9,-1.5 2.9,-2.1 1,-0.6 1.9,-0.9 2.6,-0.9 h 15.1 v -19.5 h -6.3 l -1.1,1.5 -28.4,42.7 c -1.3,2 -2.8,3.2 -4.8,3.8 -1.9,0.5 -3.9,0.8 -6,0.8 h -28.9 c -1.9,-0.9 -3.3,-1.9 -4.3,-3.1 -1,-1.2 -1.5,-2.6 -1.5,-4.3 0,-0.7 0.1,-1.3 0.3,-1.9 0.2,-0.6 0.5,-1.2 0.8,-1.9 z m 1.8,0.6 -41.7,63.1 h 0.2 c -0.7,0.8 -1.1,1.9 -1.1,3.1 0,2.6 1.5,4.5 4.4,5.8 h 28.2 c 1.8,0 3.5,-0.2 5.1,-0.7 1.6,-0.5 2.9,-1.4 3.8,-2.9 l 28.5,-42.9 h -0.3 c 0.1,-0.1 0.2,-0.2 0.4,-0.4 0.2,-0.2 0.3,-0.3 0.4,-0.4 0.2,-0.2 0.5,-0.5 0.9,-0.9 0.4,-0.3 0.5,-0.5 0.5,-0.6 h 9.3 v 22.8 h -17.1 c -0.5,0 -1.2,0.2 -2,0.7 -0.8,0.5 -1.5,1.1 -2.2,1.7 -0.7,0.6 -1.3,1.2 -1.8,1.9 -0.5,0.6 -0.8,1.1 -0.8,1.4 v 14.1 c 0,0.7 0.2,1.3 0.6,2 0.4,0.7 1,1.4 1.6,2 0.7,0.6 1.5,1.1 2.4,1.5 0.9,0.4 1.7,0.6 2.6,0.6 h 47.2 c 1.9,0 3.6,-0.6 5.2,-1.9 1.6,-1.3 2.4,-2.6 2.4,-3.9 V 83.2 c 0,-1.6 -0.8,-3.2 -2.4,-4.5 -1.6,-1.4 -3.4,-2 -5.3,-2 h -60.1 c -2.2,0 -3.9,0.2 -5.3,0.7 -1.3,0.5 -2.5,1.2 -3.7,2.1 v -0.2 z m 3,1.9 v -0.1 c 0.6,-0.5 1.4,-0.9 2.2,-1.2 0.8,-0.3 2.1,-0.5 3.8,-0.5 h 60.1 c 0.9,0 1.9,0.4 2.7,1.2 0.9,0.8 1.3,1.7 1.3,2.6 v 62.3 c 0,0.7 -0.4,1.3 -1.3,2 -0.8,0.7 -1.7,1.1 -2.7,1.1 h -47.2 c -0.9,0 -1.8,-0.4 -2.5,-1.2 -0.7,-0.8 -1.1,-1.6 -1.1,-2.2 V 131 c 0,-0.3 0.4,-0.9 1.2,-1.7 0.8,-0.8 1.4,-1.2 2,-1.2 h 18.4 c 0.5,0 1.1,-0.2 1.6,-0.6 0.6,-0.4 0.9,-0.9 0.9,-1.4 v -23.9 c 0,-1.6 -0.8,-2.3 -2.5,-2.3 h -11 c -0.8,0.2 -1.6,0.6 -2.4,1.2 -0.7,0.7 -1.4,1.4 -2,2.2 v -0.1 l -28.9,43.2 c -0.5,1 -1.3,1.6 -2.4,1.9 -1.1,0.3 -2.2,0.4 -3.2,0.4 h -27.3 c -1,-0.6 -1.6,-1.6 -1.6,-3.1 0,-0.4 0,-0.7 0.1,-1 0.1,-0.2 0.2,-0.5 0.4,-0.9 v 0.1 z"
   class="st3" />
	<path
   style="fill:#ffffff"
   inkscape:connector-curvature="0"
   id="path45"
   d="m 1294.4,141.2 c -1.9,0 -3.7,-0.9 -5.5,-2.8 v 7.2 c 0,0.7 -0.3,1.5 -0.9,2.4 -0.6,0.9 -1.3,1.7 -2.2,2.4 -0.9,0.7 -1.8,1.4 -2.8,1.9 -1,0.5 -2,0.7 -2.9,0.7 h -23.7 c -1.3,0 -2.5,-0.2 -3.6,-0.7 -1.2,-0.5 -2.2,-1.1 -3.1,-1.8 -0.9,-0.7 -1.6,-1.5 -2.1,-2.4 -0.5,-0.9 -0.8,-1.7 -0.8,-2.5 V 82.4 c 0,-0.8 0.3,-1.7 0.8,-2.5 0.5,-0.9 1.2,-1.7 2.1,-2.4 0.9,-0.7 1.9,-1.3 3.1,-1.8 1.1,-0.5 2.4,-0.7 3.6,-0.7 h 97.7 c 1,0 2.1,0.2 3.3,0.7 1.1,0.5 2.2,1.1 3.1,1.8 0.9,0.7 1.6,1.5 2.2,2.4 0.6,0.9 0.9,1.7 0.9,2.5 v 51.3 c 0,1 -0.3,2 -1,3 -0.7,1 -1.5,1.9 -2.4,2.6 l 1.9,2.1 c 0.6,0.7 1,1.3 1.3,2 0.2,0.7 0.3,1.4 0.3,2.1 0,3.1 -1.9,5.6 -5.8,7.4 H 1329 c -1.9,0 -3.8,-0.2 -5.7,-0.7 -1.9,-0.5 -3.5,-1.7 -4.8,-3.6 v 0.1 l -6.6,-7.5 z m -6.2,-6 c 0.5,0.7 1.1,1.3 1.8,1.9 0.7,0.6 1.4,1.2 2.2,1.7 0.8,0.5 1.5,0.7 2.1,0.7 h 18.8 l 6.7,7.8 c 1.1,1.7 2.5,2.8 4.2,3.3 1.6,0.5 3.3,0.7 4.9,0.7 h 28.1 c 2.9,-1.3 4.4,-3.3 4.4,-5.8 0,-0.5 -0.1,-1 -0.2,-1.5 -0.2,-0.5 -0.5,-1.1 -1,-1.7 l -3,-3.5 c 1.1,-0.6 2.1,-1.3 3,-2.3 0.8,-0.9 1.3,-1.9 1.3,-2.8 V 82.4 c 0,-0.7 -0.2,-1.3 -0.6,-2 -0.4,-0.7 -1,-1.3 -1.7,-1.9 -0.7,-0.5 -1.5,-1 -2.4,-1.4 -0.8,-0.4 -1.7,-0.6 -2.7,-0.6 h -97.7 c -1.9,0 -3.6,0.6 -5.2,1.9 -1.6,1.3 -2.4,2.6 -2.4,3.9 v 63.1 c 0,1.3 0.8,2.6 2.4,3.9 1.6,1.3 3.3,1.9 5.2,1.9 h 23.7 c 0.7,0 1.5,-0.2 2.3,-0.6 0.8,-0.4 1.5,-0.8 2.2,-1.4 0.7,-0.5 1.2,-1.2 1.6,-1.9 0.4,-0.7 0.6,-1.4 0.6,-2 v -42.9 h 36.9 v 11 h -29 c -0.8,0 -1.7,0.2 -2.5,0.6 -0.8,0.4 -1.6,0.9 -2.4,1.5 -0.7,0.6 -1.3,1.3 -1.7,2 -0.4,0.7 -0.6,1.4 -0.6,2 v 14 c 0,0.6 0.2,1.1 0.7,1.7 z m 38.2,-34.7 c -0.6,-0.4 -1.1,-0.6 -1.6,-0.6 h -39.1 c -0.6,0 -1.2,0.2 -1.8,0.6 -0.6,0.4 -0.9,0.8 -0.9,1.2 v 43.8 c 0,0.7 -0.3,1.3 -1,2 -0.7,0.7 -1.3,1.1 -2,1.1 h -23.7 c -1,0 -2,-0.3 -2.7,-1.1 -0.8,-0.7 -1.2,-1.4 -1.2,-2 V 82.4 c 0,-0.7 0.4,-1.3 1.2,-2 0.8,-0.7 1.7,-1.1 2.7,-1.1 h 97.7 c 0.8,0 1.7,0.4 2.5,1.1 0.8,0.7 1.3,1.4 1.3,2 v 51.3 c 0,0.7 -0.4,1.3 -1.3,2 -0.8,0.7 -1.7,1.1 -2.5,1.1 h -2.8 l 6,6.7 c 0.4,0.6 0.6,1.2 0.6,2 0,1.4 -0.6,2.4 -1.7,3.1 H 1329 c -1.2,0 -2.2,-0.1 -3.2,-0.4 -1,-0.2 -1.8,-0.9 -2.3,-1.9 v 0.1 l -8.6,-9.6 h -20.5 c -0.5,0 -1.2,-0.4 -2,-1.2 -0.8,-0.8 -1.2,-1.4 -1.2,-1.9 v -14 c 0,-0.7 0.3,-1.4 1,-2.2 0.7,-0.8 1.5,-1.2 2.4,-1.2 h 30.1 c 0.5,0 1,-0.2 1.5,-0.6 0.5,-0.4 0.8,-0.8 1,-1.2 v -12.7 c 0.1,-0.4 -0.2,-0.9 -0.8,-1.3 z m -34.8,12.2 c 1,-0.5 2,-0.7 3.1,-0.7 h 27 v -7.8 h -32.8 v 10.3 c 0.8,-0.7 1.7,-1.3 2.7,-1.8 z"
   class="st3" />
	<path
   style="fill:#ffffff"
   inkscape:connector-curvature="0"
   id="path47"
   d="m 1371.1,106.7 c 1.3,-1.4 2.8,-2.4 4.5,-3 -1.8,-0.7 -3.3,-1.7 -4.5,-3.1 -1.3,-1.4 -1.9,-2.7 -1.9,-3.8 V 82.4 c 0,-0.8 0.3,-1.7 0.8,-2.5 0.5,-0.9 1.2,-1.7 2.1,-2.4 0.9,-0.7 1.9,-1.3 3.1,-1.8 1.1,-0.5 2.4,-0.7 3.6,-0.7 h 97.7 c 1,0 2.1,0.2 3.3,0.7 1.1,0.5 2.2,1.1 3.1,1.8 0.9,0.7 1.6,1.5 2.2,2.4 0.6,0.9 0.9,1.7 0.9,2.5 v 45.4 c 0,3.5 -1.1,6.8 -3.3,9.9 -2.2,3.1 -4.9,5.7 -8,8 -3.1,2.3 -6.4,4 -9.8,5.3 -3.4,1.3 -6.2,1.9 -8.5,1.9 h -77.5 c -1.3,0 -2.5,-0.2 -3.6,-0.7 -1.2,-0.5 -2.2,-1.1 -3.1,-1.8 -0.9,-0.7 -1.6,-1.5 -2.1,-2.4 -0.5,-0.9 -0.8,-1.7 -0.8,-2.5 v -34.3 c -0.1,-1.6 0.5,-3.1 1.8,-4.5 z m 38.1,4.7 c 0,-1.5 -0.7,-3 -2.2,-4.5 -1.5,-1.5 -3.2,-2.2 -5.3,-2.2 H 1379 c -1.9,0 -3.6,0.7 -5.3,2 -1.6,1.4 -2.4,2.9 -2.4,4.5 v 34.3 c 0,1.3 0.8,2.6 2.4,3.9 1.6,1.3 3.3,1.9 5.2,1.9 h 77.5 c 2.2,0 4.9,-0.6 8,-1.8 3.1,-1.2 6.2,-2.8 9.1,-4.9 2.9,-2.1 5.4,-4.6 7.5,-7.4 2,-2.8 3.1,-6 3.1,-9.3 V 82.4 c 0,-0.7 -0.2,-1.3 -0.6,-2 -0.4,-0.7 -1,-1.3 -1.7,-1.9 -0.7,-0.5 -1.5,-1 -2.4,-1.4 -0.8,-0.4 -1.7,-0.6 -2.7,-0.6 H 1379 c -1.9,0 -3.6,0.6 -5.2,1.9 -1.6,1.3 -2.4,2.6 -2.4,3.9 v 14.3 c 0,0.7 0.2,1.3 0.6,2 0.4,0.7 1,1.3 1.7,1.9 0.7,0.6 1.5,1.1 2.4,1.4 0.8,0.4 1.7,0.6 2.7,0.6 h 67.4 v 20 c 0,0.3 -0.5,0.8 -1.4,1.5 -0.9,0.7 -1.7,1.1 -2.4,1.2 h -33.1 v -13.8 z m -2.9,16 c 0.6,0.4 1.2,0.6 1.8,0.6 h 35 c 0.6,-0.1 1.3,-0.3 2,-0.7 0.7,-0.4 1.4,-0.9 2.1,-1.4 0.7,-0.5 1.3,-1.1 1.7,-1.7 0.5,-0.6 0.7,-1.1 0.7,-1.5 v -21 c -0.1,-0.4 -0.4,-0.8 -0.9,-1.2 -0.5,-0.4 -1,-0.6 -1.6,-0.6 h -68.5 c -0.8,0 -1.7,-0.4 -2.5,-1.1 -0.8,-0.7 -1.3,-1.4 -1.3,-2 V 82.4 c 0,-0.7 0.4,-1.3 1.2,-2 0.8,-0.7 1.7,-1.1 2.7,-1.1 h 97.7 c 0.8,0 1.7,0.4 2.5,1.1 0.8,0.7 1.3,1.4 1.3,2 v 45.4 c 0,3 -0.9,5.7 -2.7,8.2 -1.8,2.5 -3.9,4.7 -6.5,6.6 -2.6,1.9 -5.2,3.3 -7.9,4.4 -2.7,1.1 -5,1.6 -6.9,1.6 h -77.5 c -1,0 -2,-0.3 -2.7,-1.1 -0.8,-0.7 -1.2,-1.4 -1.2,-2 v -34.3 c 0,-1 0.4,-1.9 1.3,-2.6 0.9,-0.7 1.8,-1.1 2.7,-1.1 h 22.7 c 1.3,0 2.2,0.4 2.8,1.2 0.6,0.8 0.9,1.7 0.9,2.6 V 126 c 0.2,0.6 0.5,1 1.1,1.4 z m 36,-3.7 c 0.4,-0.2 0.8,-0.3 1.2,-0.6 0.4,-0.2 0.5,-0.4 0.5,-0.6 v -18.4 h -37.8 c 1.5,0.9 2.7,2 3.6,3.2 0.9,1.2 1.4,2.6 1.4,4 v 12.4 z"
   class="st3" />
</g><g
     transform="translate(0,-5.10001)"
     id="g73">
	<path
   style="fill:#ffffff"
   inkscape:connector-curvature="0"
   id="path51"
   d="m 225,62.4 v 0 c -1.1,-0.7 -2.1,-1.6 -3.1,-2.7 -1,-1.1 -1.9,-2.2 -2.7,-3.5 -0.8,-1.3 -1.4,-2.7 -1.9,-4.1 -0.5,-1.4 -0.7,-2.9 -0.7,-4.5 V 10.5 c 0,-0.8 0.4,-1.6 1.1,-2.4 0.8,-0.8 1.6,-1.3 2.6,-1.3 h 61.9 c 0.7,0 1.3,0.3 2,0.8 0.7,0.5 1.1,1.1 1.4,1.8 h -0.1 l 2.1,2 c 0.8,0.8 1.3,1.6 1.3,2.4 v 11.8 c 0,0.7 -0.3,1.4 -1,2.2 -0.7,0.8 -1.5,1.2 -2.3,1.2 h -0.3 c 0.1,0.1 0.1,0.1 0.1,0.2 0,0.1 0,0.1 0.1,0.2 h -0.1 l 1.5,1.5 0.3,0.2 c 0.5,0.5 0.9,1 1.2,1.6 0.3,0.6 0.5,1.2 0.5,1.7 v 31 c 0,0.8 -0.4,1.6 -1.1,2.3 -0.7,0.8 -1.5,1.2 -2.3,1.2 h -49.2 c -1.3,0 -2.9,-0.5 -4.9,-1.5 -1.9,-1 -3.8,-2.4 -5.6,-4.2 z m 38.7,-18 c 0.4,0 0.8,0.3 1.2,0.8 0.4,0.5 0.6,0.9 0.6,1.3 -0.1,0.4 -0.4,0.7 -0.8,1.1 -0.4,0.4 -0.8,0.6 -1.1,0.6 h -22.1 c -0.4,-0.1 -0.8,-0.3 -1.3,-0.7 -0.5,-0.4 -1,-0.8 -1.4,-1.4 -0.4,-0.5 -0.8,-1 -1.2,-1.5 -0.3,-0.5 -0.5,-0.9 -0.5,-1.2 V 26.2 c 0.1,-0.4 0.3,-0.7 0.7,-1.1 0.4,-0.4 0.8,-0.5 1.2,-0.5 h 43.4 c 0.5,0 0.9,-0.3 1.4,-0.8 0.4,-0.5 0.7,-1 0.7,-1.5 V 10.5 c 0,-0.5 -0.2,-1 -0.7,-1.4 -0.5,-0.5 -0.9,-0.7 -1.5,-0.7 h -61.9 c -0.5,0 -1,0.2 -1.5,0.7 -0.5,0.5 -0.7,1 -0.7,1.4 v 37.1 c 0,2.3 0.6,4.5 1.7,6.6 1.1,2 2.5,3.8 4,5.3 1.5,1.5 3.2,2.7 4.9,3.6 1.7,0.9 3.1,1.3 4.2,1.3 h 49.2 c 0.5,0 1,-0.3 1.5,-0.8 0.4,-0.5 0.7,-1 0.7,-1.5 v -31 c 0,-0.7 -0.2,-1.4 -0.7,-1.9 -0.5,-0.6 -1,-0.9 -1.5,-0.9 h -37 c -0.3,0 -0.7,0.3 -1.1,0.9 -0.4,0.6 -0.6,1 -0.6,1.3 v 11.3 c 0,0.5 0.2,1 0.6,1.6 0.4,0.6 0.9,0.9 1.3,0.9 h 18.3 z m -22.2,2.2 h 4.1 l -0.9,-0.9 v 0.1 c -0.7,-0.2 -1.4,-0.8 -1.9,-1.7 -0.6,-0.9 -0.9,-1.6 -0.9,-2.3 V 30.5 c 0,-0.4 0.2,-0.9 0.7,-1.5 h -0.5 c -0.4,0 -0.6,0.1 -0.6,0.4 z"
   class="st3" />
	<path
   style="fill:#ffffff"
   inkscape:connector-curvature="0"
   id="path53"
   d="m 356.1,56.3 v 0 c -0.4,0 -0.9,-0.4 -1.4,-0.9 -0.5,-0.6 -0.9,-1.1 -1.2,-1.6 v 11.7 c 0,0.7 -0.3,1.5 -0.9,2.2 -0.6,0.8 -1.3,1.2 -1.9,1.2 h -15.1 c -0.7,0 -1.3,-0.4 -2.1,-1.1 l -2.3,-2.3 v 0.1 c -0.7,-0.3 -1.3,-0.8 -1.8,-1.5 -0.5,-0.7 -0.7,-1.4 -0.7,-2 V 10.5 c 0,-0.8 0.4,-1.6 1.1,-2.4 0.8,-0.8 1.6,-1.3 2.6,-1.3 h 61.9 c 0.7,0 1.3,0.3 2,0.8 0.7,0.5 1.1,1.1 1.4,1.8 h -0.1 l 2.1,2 c 0.8,0.8 1.3,1.6 1.3,2.4 v 42 c 0,0.7 -0.4,1.5 -1.1,2.3 -0.7,0.8 -1.5,1.2 -2.3,1.2 l 2.9,4.2 c 0.4,0.7 0.5,1.3 0.5,2 0,1.5 -0.6,2.6 -1.9,3.4 h -17.4 c -0.7,0 -1.3,-0.1 -1.9,-0.2 -0.6,-0.2 -1.2,-0.5 -1.8,-1 l -2.3,-2.3 v 0.1 c -0.4,-0.2 -0.8,-0.4 -1.1,-0.7 -0.3,-0.3 -0.6,-0.8 -0.9,-1.4 l -3,-4.1 h -11.1 c -0.3,0 -0.7,-0.3 -1.3,-0.8 z M 377.6,37 c -0.1,0.4 -0.4,0.8 -0.8,1.1 -0.4,0.3 -0.8,0.5 -1.1,0.5 h -19 c -0.5,0 -0.9,0.3 -1.4,0.9 -0.4,0.6 -0.6,1.1 -0.6,1.6 v 11.5 c 0,0.3 0.2,0.7 0.6,1.3 0.4,0.6 0.8,0.9 1.1,0.9 h 13.3 l 5.4,7.9 c 0.4,0.7 0.8,1.1 1.4,1.3 0.6,0.2 1.2,0.3 1.9,0.3 h 17 c 0.7,-0.5 1,-1.2 1,-2.2 0,-0.5 -0.1,-0.9 -0.4,-1.3 l -4.1,-6 h 2.3 c 0.5,0 1,-0.3 1.5,-0.8 0.4,-0.5 0.7,-1 0.7,-1.5 v -42 c 0,-0.5 -0.2,-1 -0.7,-1.4 -0.5,-0.5 -0.9,-0.7 -1.5,-0.7 h -61.9 c -0.5,0 -1,0.2 -1.5,0.7 -0.5,0.5 -0.7,1 -0.7,1.4 v 51.6 c 0,0.5 0.2,1 0.7,1.5 0.5,0.5 0.9,0.8 1.5,0.8 h 15 c 0.4,0 0.7,-0.2 1.1,-0.7 0.4,-0.5 0.6,-1 0.6,-1.4 v -36 c 0,-0.4 0.2,-0.7 0.6,-1.1 0.4,-0.4 0.8,-0.6 1.3,-0.6 h 24.7 c 0.4,0 0.8,0.2 1.3,0.6 0.5,0.4 0.6,0.8 0.6,1.2 V 37 Z m -1.5,-0.4 V 29 h -21.9 c -0.4,0 -0.6,0.2 -0.6,0.5 v 10.3 c 0.3,-0.7 0.8,-1.3 1.4,-1.8 0.6,-0.6 1.2,-0.9 1.8,-0.9 h 19 z"
   class="st3" />
	<path
   style="fill:#ffffff"
   inkscape:connector-curvature="0"
   id="path55"
   d="m 449.4,62.7 c -1.1,-0.8 -2.1,-1.7 -3.2,-2.8 -1,-1.1 -1.9,-2.3 -2.7,-3.5 -0.8,-1.3 -1.4,-2.6 -1.9,-4.1 -0.5,-1.5 -0.7,-3 -0.7,-4.5 V 10.5 c 0,-0.8 0.4,-1.6 1.1,-2.4 0.8,-0.8 1.6,-1.3 2.6,-1.3 h 61.9 c 0.7,0 1.3,0.3 2,0.8 0.7,0.5 1.1,1.1 1.4,1.8 h -0.1 l 2.1,2 c 0.8,0.8 1.3,1.6 1.3,2.4 V 51 c 0,2.5 -0.6,4.9 -1.8,7.1 -1.2,2.2 -2.7,4.1 -4.4,5.7 -1.7,1.6 -3.5,2.9 -5.3,3.8 -1.8,0.9 -3.3,1.4 -4.6,1.4 h -36.7 c -1.3,0 -2.9,-0.5 -4.9,-1.5 -2,-1 -3.8,-2.4 -5.5,-4.1 v 0.1 z m 59.3,-52.2 c 0,-0.5 -0.2,-1 -0.7,-1.4 -0.5,-0.5 -0.9,-0.7 -1.5,-0.7 h -61.9 c -0.5,0 -1,0.2 -1.5,0.7 -0.5,0.5 -0.7,1 -0.7,1.4 v 37.2 c 0,2.3 0.6,4.5 1.7,6.6 1.1,2 2.4,3.8 4,5.3 1.6,1.5 3.2,2.6 4.9,3.5 1.7,0.9 3.1,1.3 4.2,1.3 h 36.7 c 1.1,0 2.5,-0.4 4.2,-1.3 1.7,-0.9 3.3,-2 4.9,-3.5 1.6,-1.5 2.9,-3.2 4,-5.3 1.1,-2 1.7,-4.2 1.7,-6.6 z m -47.4,15.9 c 0,-0.4 0.2,-0.8 0.6,-1.2 0.4,-0.4 0.8,-0.6 1.3,-0.6 h 24.7 c 0.4,0 0.8,0.2 1.2,0.6 0.4,0.4 0.7,0.8 0.7,1.1 v 17.5 c -0.1,0.4 -0.2,0.8 -0.5,1.3 -0.3,0.5 -0.7,1 -1.1,1.4 -0.4,0.4 -0.9,0.8 -1.4,1.1 -0.5,0.3 -0.9,0.5 -1.4,0.5 h -19.7 c -0.4,0 -0.8,-0.2 -1.3,-0.5 -0.5,-0.4 -1,-0.8 -1.4,-1.3 -0.4,-0.5 -0.8,-1 -1.1,-1.5 -0.3,-0.5 -0.4,-0.9 -0.4,-1.3 V 26.4 Z m 4.4,20.2 h 19.6 c 0.2,0 0.4,-0.1 0.7,-0.3 0.3,-0.2 0.6,-0.4 0.9,-0.7 0.3,-0.3 0.6,-0.6 0.8,-0.9 0.2,-0.3 0.4,-0.6 0.5,-0.9 V 29 h -21.9 c -0.4,0 -0.6,0.2 -0.6,0.6 z"
   class="st3" />
	<path
   style="fill:#ffffff"
   inkscape:connector-curvature="0"
   id="path57"
   d="m 555.6,65.5 v 0 c -0.7,-0.2 -1.3,-0.7 -1.8,-1.4 -0.5,-0.7 -0.7,-1.4 -0.7,-2 v -37 c 0,-2.6 0.6,-5 1.8,-7.2 1.2,-2.2 2.7,-4.2 4.4,-5.8 1.7,-1.6 3.5,-2.9 5.4,-3.8 1.9,-0.9 3.5,-1.4 4.7,-1.4 h 49.2 c 0.7,0 1.3,0.3 2,0.8 0.7,0.5 1.1,1.1 1.4,1.8 v 0 l 2.1,2 c 0.8,0.8 1.3,1.6 1.3,2.4 v 31 c 0,1 -0.4,1.9 -1.1,2.8 -0.8,0.8 -1.5,1.3 -2.4,1.3 h -0.2 c 0,0.1 0,0.1 0.1,0.1 V 49 h 0.1 l 0.1,0.1 2.8,2.7 c 0.4,0.4 0.6,1 0.6,1.9 v 11.7 c 0,0.8 -0.4,1.6 -1.1,2.3 -0.7,0.8 -1.5,1.2 -2.3,1.2 h -62 c -0.7,0 -1.3,-0.4 -2.1,-1.1 z m 26.2,-37.2 c -0.5,0 -0.9,0.3 -1.3,0.9 -0.4,0.6 -0.6,1.1 -0.6,1.6 v 11.3 c 0,0.3 0.2,0.7 0.6,1.3 0.4,0.6 0.8,0.9 1.1,0.9 h 37 c 0.5,0 1,-0.3 1.5,-0.9 0.5,-0.6 0.7,-1.2 0.7,-1.9 v -31 c 0,-0.5 -0.2,-1 -0.7,-1.4 -0.5,-0.5 -0.9,-0.7 -1.5,-0.7 h -49.2 c -1.1,0 -2.6,0.4 -4.2,1.3 -1.6,0.9 -3.3,2 -4.9,3.5 -1.6,1.5 -2.9,3.3 -4,5.3 -1.1,2 -1.7,4.3 -1.7,6.7 v 37 c 0,0.5 0.2,1 0.7,1.5 0.5,0.5 0.9,0.8 1.5,0.8 h 61.9 c 0.5,0 1,-0.3 1.5,-0.8 0.4,-0.5 0.7,-1 0.7,-1.5 V 50.4 c 0,-0.5 -0.2,-1 -0.7,-1.5 -0.5,-0.5 -0.9,-0.8 -1.4,-0.8 h -43.4 c -0.4,0 -0.8,-0.2 -1.2,-0.5 -0.4,-0.4 -0.6,-0.8 -0.7,-1.2 V 29.3 c 0,-0.2 0.2,-0.6 0.5,-1.1 0.3,-0.5 0.7,-1 1.2,-1.5 0.5,-0.5 0.9,-1 1.4,-1.4 0.5,-0.4 0.9,-0.6 1.3,-0.7 H 600 c 0.4,0 0.7,0.2 1.1,0.6 0.4,0.4 0.6,0.7 0.8,1 -0.1,0.4 -0.3,0.8 -0.6,1.3 -0.4,0.5 -0.8,0.8 -1.2,0.8 z m -3.9,18.3 h 4.3 l -1,-0.9 v 0.1 c -0.2,-0.1 -0.5,-0.3 -0.9,-0.6 -0.3,-0.3 -0.6,-0.7 -0.9,-1.1 -0.3,-0.4 -0.6,-0.8 -0.8,-1.2 -0.2,-0.4 -0.3,-0.7 -0.3,-0.9 V 31.4 c -0.3,0.5 -0.5,0.8 -0.5,1.1 v 14.1 z"
   class="st3" />
	<path
   style="fill:#ffffff"
   inkscape:connector-curvature="0"
   id="path59"
   d="m 669,46.6 -1.3,-1.2 v 0.1 c -0.7,-0.3 -1.2,-0.8 -1.8,-1.5 -0.5,-0.7 -0.8,-1.4 -0.8,-2 V 25 c 0,-2.6 0.6,-5 1.8,-7.2 1.2,-2.2 2.7,-4.1 4.4,-5.8 1.7,-1.6 3.5,-2.9 5.4,-3.8 1.9,-0.9 3.4,-1.4 4.7,-1.4 h 49.8 c 0.4,0 0.8,0.3 1.4,0.9 0.6,0.6 1,1.1 1.3,1.7 h -0.1 l 1.5,1.4 v -0.1 c 0.5,0.5 0.9,1.1 1.4,1.7 0.5,0.6 0.7,1 0.7,1.3 v 11.6 c 0,0.4 -0.1,0.8 -0.3,1.2 -0.2,0.4 -0.4,0.8 -0.8,1.2 -0.3,0.4 -0.7,0.7 -1.1,0.9 -0.4,0.3 -0.8,0.4 -1.1,0.4 h -0.5 c 0,0.1 0,0.1 0.1,0.1 0.1,0.1 0.1,0.1 0.1,0.2 0,0.1 0,0.1 0.1,0.2 l 1.5,1.5 0.3,0.2 c 0.5,0.5 0.9,1 1.2,1.6 0.3,0.6 0.5,1.2 0.5,1.7 v 30.9 c 0,0.8 -0.4,1.6 -1.1,2.3 -0.7,0.8 -1.5,1.2 -2.3,1.2 h -62.2 c -0.5,0 -1.1,-0.3 -1.7,-1 l -2.3,-2.2 v 0.1 c -0.7,-0.3 -1.3,-0.9 -1.8,-1.7 -0.6,-0.8 -0.9,-1.6 -0.9,-2.3 V 50.3 c 0,-0.2 0.1,-0.5 0.4,-0.9 0.2,-0.4 0.5,-0.8 0.9,-1.3 0.3,-0.4 0.7,-0.8 1,-1.1 0.4,-0.3 0.7,-0.5 1,-0.5 h 0.6 z m -0.6,1.6 c -0.3,0 -0.7,0.3 -1.1,0.9 -0.4,0.6 -0.6,1 -0.6,1.3 v 11.5 c 0,0.5 0.2,1 0.6,1.6 0.4,0.6 0.9,0.9 1.3,0.9 h 62.1 c 0.5,0 1,-0.3 1.5,-0.8 0.4,-0.5 0.7,-1 0.7,-1.5 V 31.2 c 0,-0.7 -0.2,-1.4 -0.7,-1.9 -0.5,-0.6 -1,-0.9 -1.5,-0.9 h -43.3 c -0.2,-0.1 -0.5,-0.2 -0.7,-0.4 -0.2,-0.2 -0.3,-0.5 -0.3,-0.8 0,-0.4 0.1,-0.7 0.4,-1 0.3,-0.3 0.6,-0.6 1,-0.9 0.4,-0.2 0.8,-0.4 1.2,-0.6 0.4,-0.1 0.7,-0.2 0.9,-0.2 h 41 c 0.5,0 0.9,-0.3 1.4,-0.9 0.4,-0.6 0.6,-1.1 0.6,-1.6 V 10.5 c 0,-0.2 -0.2,-0.6 -0.6,-1.2 -0.4,-0.6 -0.8,-0.9 -1.1,-0.9 h -49.8 c -1.1,0 -2.5,0.4 -4.2,1.3 -1.7,0.9 -3.3,2 -4.9,3.5 -1.6,1.5 -2.9,3.3 -4,5.3 -1.1,2 -1.7,4.2 -1.7,6.6 v 17 c 0,0.5 0.3,1 0.8,1.5 0.5,0.5 1,0.8 1.5,0.8 h 43.3 l 0.7,0.4 c 0.4,0.1 0.6,0.3 0.8,0.5 0.2,0.2 0.3,0.6 0.3,1.3 0,0.8 -0.2,1.3 -0.6,1.5 -0.4,0.2 -0.8,0.3 -1.3,0.3 h -43.7 z"
   class="st3" />
	<path
   style="fill:#ffffff"
   inkscape:connector-curvature="0"
   id="path61"
   d="m 792.1,29 h -8 c -0.4,0 -0.8,-0.1 -1.2,-0.3 -0.4,-0.2 -0.7,-0.5 -0.9,-0.8 l -2.3,-2.2 v 0.1 C 779,25.5 778.5,25 778,24.3 c -0.5,-0.7 -0.7,-1.4 -0.7,-2 V 10.5 c 0,-0.8 0.4,-1.6 1.1,-2.4 0.8,-0.8 1.6,-1.3 2.6,-1.3 h 52.3 c 0.7,0 1.3,0.3 2,0.8 0.7,0.5 1.1,1.1 1.4,1.8 h -0.1 l 1.5,1.5 0.2,0.1 c 1.1,1.1 1.6,2 1.6,2.8 v 11.8 c 0,0.7 -0.3,1.4 -1,2.2 -0.7,0.8 -1.5,1.2 -2.3,1.2 h -18.7 c -0.2,0 -0.4,0.1 -0.6,0.4 -0.2,0.3 -0.3,0.6 -0.4,0.9 v 16.3 h 8 c 0.6,0 1.2,0.3 1.7,0.8 0.5,0.5 1,1.1 1.3,1.7 h -0.1 l 2,2.1 c 1,1 1.4,1.9 1.4,2.8 v 11.5 c 0,0.2 -0.1,0.5 -0.3,0.9 -0.2,0.4 -0.5,0.8 -0.8,1.1 -0.3,0.4 -0.6,0.7 -0.9,1 -0.3,0.3 -0.6,0.4 -0.9,0.4 h -16.8 c -1.3,0 -2.9,-0.5 -4.9,-1.5 -2,-1 -3.8,-2.4 -5.5,-4.1 v 0.1 l -0.7,-0.6 c -1.1,-0.8 -2.1,-1.7 -3.1,-2.8 -1,-1.1 -1.9,-2.3 -2.7,-3.5 -0.8,-1.3 -1.4,-2.6 -1.9,-4.1 -0.5,-1.5 -0.7,-3 -0.7,-4.5 V 29 Z m 1.5,18.7 c 0,2.3 0.6,4.5 1.7,6.6 1.1,2 2.4,3.8 4,5.3 1.6,1.5 3.2,2.6 4.9,3.5 1.7,0.9 3.1,1.3 4.2,1.3 h 16.8 c 0.3,0 0.7,-0.3 1.1,-0.9 0.4,-0.6 0.6,-1 0.6,-1.3 V 50.7 c 0,-0.5 -0.2,-1 -0.6,-1.6 -0.4,-0.6 -0.9,-0.9 -1.3,-0.9 h -8.4 c -0.4,-0.1 -0.8,-0.3 -1.3,-0.6 -0.5,-0.4 -0.9,-0.8 -1.3,-1.3 -0.4,-0.5 -0.7,-1 -1,-1.5 -0.3,-0.5 -0.5,-0.9 -0.5,-1.2 V 27 c 0.1,-0.5 0.3,-1.1 0.8,-1.6 0.5,-0.5 0.9,-0.8 1.3,-0.8 h 18.7 c 0.5,0 0.9,-0.3 1.4,-0.8 0.5,-0.5 0.7,-1 0.7,-1.5 V 10.5 c 0,-0.5 -0.2,-1 -0.7,-1.4 -0.5,-0.4 -0.9,-0.7 -1.5,-0.7 H 781 c -0.5,0 -1,0.2 -1.5,0.7 -0.5,0.5 -0.7,1 -0.7,1.4 v 11.8 c 0,0.5 0.2,1 0.7,1.5 0.5,0.5 0.9,0.8 1.4,0.8 h 10.4 c 0.4,0 0.9,0.3 1.4,0.8 0.5,0.5 0.8,1.1 0.9,1.6 z"
   class="st3" />
	<path
   style="fill:#ffffff"
   inkscape:connector-curvature="0"
   id="path63"
   d="m 888.3,62.7 c -2.2,-1.6 -4.2,-3.7 -5.9,-6.3 -1.7,-2.5 -2.6,-5.4 -2.6,-8.7 V 10.5 c 0,-0.8 0.4,-1.6 1.1,-2.4 0.8,-0.8 1.6,-1.3 2.6,-1.3 H 898 c 0.7,0 1.3,0.3 2,0.8 0.7,0.5 1.1,1.1 1.4,1.8 h -0.1 l 2.1,2 c 0.4,0.4 0.7,0.8 0.9,1.2 0.2,0.4 0.4,0.8 0.4,1.3 v 32.8 h 25.6 c 0.6,0 1.2,0.3 1.7,0.8 0.5,0.5 1,1.1 1.3,1.7 h -0.1 l 2.1,2.1 c 1,1 1.4,1.9 1.4,2.8 v 11.5 c 0,0.2 -0.1,0.5 -0.3,0.9 -0.2,0.4 -0.5,0.8 -0.8,1.1 -0.3,0.4 -0.7,0.7 -1,1 -0.3,0.3 -0.6,0.4 -0.9,0.4 h -34.5 c -1.3,0 -2.8,-0.5 -4.8,-1.5 -2,-1 -3.8,-2.4 -5.5,-4.1 v 0.1 z M 900.2,10.5 C 900.2,10 900,9.5 899.5,9.1 899,8.7 898.6,8.4 898,8.4 h -14.5 c -0.5,0 -1,0.2 -1.5,0.7 -0.5,0.5 -0.7,1 -0.7,1.4 v 37.2 c 0,2.3 0.6,4.5 1.7,6.6 1.1,2 2.4,3.8 4,5.3 1.6,1.5 3.2,2.6 4.9,3.5 1.7,0.9 3.1,1.3 4.2,1.3 h 34.4 c 0.3,0 0.7,-0.3 1.1,-0.9 0.4,-0.6 0.6,-1 0.6,-1.3 V 50.7 c 0,-0.5 -0.2,-1 -0.6,-1.6 -0.4,-0.6 -0.9,-0.9 -1.3,-0.9 h -25.7 c -0.4,-0.1 -0.8,-0.3 -1.3,-0.6 -0.5,-0.4 -1,-0.8 -1.4,-1.3 -0.4,-0.5 -0.8,-1 -1.1,-1.4 -0.3,-0.4 -0.5,-0.9 -0.5,-1.3 V 10.5 Z"
   class="st3" />
	<path
   style="fill:#ffffff"
   inkscape:connector-curvature="0"
   id="path65"
   d="m 985,62.4 v 0 c -1.1,-0.7 -2.1,-1.6 -3.1,-2.7 -1,-1.1 -1.9,-2.2 -2.7,-3.5 -0.8,-1.3 -1.4,-2.7 -1.9,-4.1 -0.5,-1.4 -0.7,-2.9 -0.7,-4.5 V 10.5 c 0,-0.8 0.4,-1.6 1.1,-2.4 0.8,-0.8 1.6,-1.3 2.6,-1.3 h 61.9 c 0.7,0 1.3,0.3 2,0.8 0.7,0.5 1.1,1.1 1.4,1.8 h -0.1 l 1.5,1.5 0.2,0.1 c 1.1,1.1 1.6,2 1.6,2.8 v 19.5 c 0,1 -0.4,1.9 -1.1,2.8 -0.8,0.8 -1.5,1.3 -2.4,1.3 h -14.5 c -0.7,0 -1.4,-0.3 -2,-0.9 l -2.3,-2.3 v 0.1 c -0.8,-0.3 -1.5,-0.9 -1.9,-1.7 -0.4,-0.8 -0.7,-1.7 -0.7,-2.5 v -1 H 1002 c -0.4,0 -0.6,0.1 -0.6,0.4 v 17.2 h 40.8 c 0.6,0 1.2,0.3 1.9,0.9 0.7,0.6 1.2,1.2 1.5,1.8 h -0.1 l 1.6,1.6 c 0.1,0 0.2,0.1 0.2,0.2 0.4,0.4 0.8,0.9 1.1,1.3 0.3,0.5 0.5,0.9 0.5,1.2 v 11.7 c 0,0.8 -0.4,1.6 -1.1,2.3 -0.7,0.8 -1.5,1.2 -2.3,1.2 h -49.2 c -1.3,0 -2.9,-0.5 -4.9,-1.5 -1.9,-1 -3.8,-2.4 -5.6,-4.2 z M 1025.5,30 c 0,0.7 0.2,1.3 0.6,1.9 0.4,0.6 0.9,0.9 1.6,0.9 h 14.5 c 0.5,0 1,-0.3 1.5,-0.9 0.5,-0.6 0.7,-1.2 0.7,-1.9 V 10.5 c 0,-0.5 -0.2,-1 -0.7,-1.4 -0.5,-0.5 -0.9,-0.7 -1.5,-0.7 h -61.9 c -0.5,0 -1,0.2 -1.5,0.7 -0.5,0.5 -0.7,1 -0.7,1.4 v 37.1 c 0,2.3 0.6,4.5 1.7,6.6 1.1,2 2.5,3.8 4,5.3 1.5,1.5 3.2,2.7 4.9,3.6 1.7,0.9 3.1,1.3 4.2,1.3 h 49.2 c 0.5,0 1,-0.3 1.5,-0.8 0.4,-0.5 0.7,-1 0.7,-1.5 V 50.4 c 0,-0.5 -0.2,-1 -0.7,-1.5 -0.5,-0.5 -1,-0.8 -1.4,-0.8 h -40.7 c -0.4,0 -0.8,-0.2 -1.3,-0.5 -0.5,-0.4 -1,-0.8 -1.5,-1.3 -0.5,-0.5 -0.9,-1 -1.2,-1.6 -0.3,-0.6 -0.5,-1 -0.5,-1.4 V 26.2 c 0.1,-0.4 0.3,-0.7 0.7,-1.1 0.4,-0.4 0.8,-0.5 1.2,-0.5 h 24.8 c 0.4,0.1 0.7,0.4 1.1,0.8 0.4,0.4 0.6,0.7 0.6,1 V 30 Z"
   class="st3" />
	<path
   style="fill:#ffffff"
   inkscape:connector-curvature="0"
   id="path67"
   d="m 1097.2,62.7 c -1.1,-0.8 -2.1,-1.7 -3.2,-2.8 -1,-1.1 -1.9,-2.3 -2.7,-3.5 -0.8,-1.3 -1.4,-2.6 -1.9,-4.1 -0.5,-1.5 -0.7,-3 -0.7,-4.5 V 10.5 c 0,-0.8 0.4,-1.6 1.1,-2.4 0.8,-0.8 1.6,-1.3 2.6,-1.3 h 61.9 c 0.7,0 1.3,0.3 2,0.8 0.7,0.5 1.1,1.1 1.4,1.8 h -0.1 l 2.1,2 c 0.8,0.8 1.3,1.6 1.3,2.4 V 51 c 0,2.5 -0.6,4.9 -1.8,7.1 -1.2,2.2 -2.7,4.1 -4.4,5.7 -1.7,1.6 -3.5,2.9 -5.3,3.8 -1.8,0.9 -3.3,1.4 -4.6,1.4 h -36.7 c -1.3,0 -2.9,-0.5 -4.9,-1.5 -2,-1 -3.8,-2.4 -5.5,-4.1 v 0.1 z m 59.3,-52.2 c 0,-0.5 -0.2,-1 -0.7,-1.4 -0.5,-0.5 -0.9,-0.7 -1.5,-0.7 h -61.9 c -0.5,0 -1,0.2 -1.5,0.7 -0.5,0.5 -0.7,1 -0.7,1.4 v 37.2 c 0,2.3 0.6,4.5 1.7,6.6 1.1,2 2.4,3.8 4,5.3 1.6,1.5 3.2,2.6 4.9,3.5 1.7,0.9 3.1,1.3 4.2,1.3 h 36.7 c 1.1,0 2.5,-0.4 4.2,-1.3 1.7,-0.9 3.3,-2 4.9,-3.5 1.6,-1.5 2.9,-3.2 4,-5.3 1.1,-2 1.7,-4.2 1.7,-6.6 z m -47.3,15.9 c 0,-0.4 0.2,-0.8 0.6,-1.2 0.4,-0.4 0.8,-0.6 1.3,-0.6 h 24.7 c 0.4,0 0.8,0.2 1.2,0.6 0.4,0.4 0.7,0.8 0.7,1.1 v 17.5 c -0.1,0.4 -0.2,0.8 -0.5,1.3 -0.3,0.5 -0.7,1 -1.1,1.4 -0.4,0.4 -0.9,0.8 -1.4,1.1 -0.5,0.3 -0.9,0.5 -1.4,0.5 h -19.7 c -0.4,0 -0.8,-0.2 -1.3,-0.5 -0.5,-0.4 -1,-0.8 -1.4,-1.3 -0.4,-0.5 -0.8,-1 -1.1,-1.5 -0.3,-0.5 -0.4,-0.9 -0.4,-1.3 V 26.4 Z m 4.4,20.2 h 19.6 c 0.2,0 0.4,-0.1 0.7,-0.3 0.3,-0.2 0.6,-0.4 0.9,-0.7 0.3,-0.3 0.6,-0.6 0.8,-0.9 0.2,-0.3 0.4,-0.6 0.5,-0.9 V 29 h -21.9 c -0.4,0 -0.6,0.2 -0.6,0.6 z"
   class="st3" />
	<path
   style="fill:#ffffff"
   inkscape:connector-curvature="0"
   id="path69"
   d="m 1251.6,6.9 c 0.7,0 1.3,0.3 2,0.8 0.7,0.5 1.1,1.1 1.4,1.8 h -0.1 l 2.1,2 c 0.8,0.8 1.3,1.6 1.3,2.4 v 11.8 c 0,0.7 -0.3,1.4 -1,2.2 -0.7,0.8 -1.5,1.2 -2.3,1.2 h -12 c -0.2,0 -0.4,0.1 -0.6,0.4 -0.2,0.3 -0.3,0.6 -0.4,0.9 v 16.3 h 9.7 c 0.6,0 1.2,0.2 1.8,0.7 0.6,0.4 1.1,1 1.4,1.7 h -0.1 l 0.1,0.1 2.8,2.7 c 0.4,0.4 0.6,1 0.6,1.9 v 11.7 c 0,0.8 -0.4,1.6 -1.1,2.3 -0.7,0.8 -1.5,1.2 -2.3,1.2 h -47.2 c -0.7,0 -1.4,-0.4 -2.2,-1.1 l -2.2,-2.3 v 0.1 c -0.7,-0.3 -1.3,-0.8 -1.8,-1.5 -0.5,-0.7 -0.7,-1.4 -0.7,-2 V 50.4 c 0,-0.4 0.1,-0.8 0.3,-1.2 0.2,-0.4 0.5,-0.9 0.9,-1.3 0.4,-0.4 0.8,-0.7 1.2,-0.9 0.4,-0.2 0.8,-0.4 1.3,-0.4 h 12 c 0.1,0 0.2,-0.1 0.4,-0.4 l 0.4,-0.9 V 29 h -9.5 c -1,0 -1.7,-0.4 -2.3,-1.1 h 0.1 l -2.3,-2.2 v 0.1 c -0.7,-0.3 -1.2,-0.8 -1.7,-1.5 -0.5,-0.7 -0.7,-1.4 -0.7,-2 V 10.5 c 0,-0.8 0.4,-1.6 1.1,-2.4 0.8,-0.8 1.6,-1.3 2.6,-1.3 h 47 z m -47,1.5 c -0.5,0 -1,0.2 -1.5,0.7 -0.5,0.5 -0.7,1 -0.7,1.4 v 11.8 c 0,0.5 0.2,1 0.7,1.5 0.5,0.5 0.9,0.8 1.4,0.8 h 12 c 0.4,0 0.9,0.3 1.4,0.8 0.5,0.5 0.8,1.1 0.9,1.6 v 18.8 c -0.1,0.5 -0.4,1 -0.9,1.5 -0.5,0.5 -0.9,0.8 -1.4,0.8 h -12 c -0.5,0 -0.9,0.3 -1.4,0.8 -0.5,0.5 -0.7,1 -0.7,1.5 v 11.7 c 0,0.5 0.2,1 0.7,1.5 0.5,0.5 0.9,0.8 1.5,0.8 h 47.1 c 0.5,0 1,-0.3 1.5,-0.8 0.5,-0.5 0.7,-1 0.7,-1.5 V 50.4 c 0,-0.5 -0.2,-1 -0.7,-1.5 -0.5,-0.5 -0.9,-0.8 -1.4,-0.8 h -12 c -0.5,0 -1,-0.3 -1.4,-0.8 -0.5,-0.5 -0.8,-1.1 -0.8,-1.6 V 27 c 0.1,-0.5 0.3,-1.1 0.9,-1.6 0.5,-0.5 1,-0.8 1.4,-0.8 h 12 c 0.5,0 0.9,-0.3 1.4,-0.8 0.5,-0.5 0.7,-1 0.7,-1.5 V 10.5 c 0,-0.5 -0.2,-1 -0.7,-1.4 -0.5,-0.4 -0.9,-0.7 -1.5,-0.7 z"
   class="st3" />
	<path
   style="fill:#ffffff"
   inkscape:connector-curvature="0"
   id="path71"
   d="m 1348.2,8.1 c 0.8,-0.8 1.6,-1.3 2.6,-1.3 h 14.6 c 0.7,0 1.3,0.3 2,0.8 0.7,0.5 1.1,1.1 1.4,1.8 h -0.1 l 2.1,2 c 0.8,0.8 1.3,1.6 1.3,2.4 v 51.4 c 0,0.8 -0.2,1.5 -0.6,2.2 -0.4,0.7 -0.9,1.2 -1.5,1.5 h -19.3 c -0.7,0 -1.3,-0.1 -2,-0.3 -0.7,-0.2 -1.3,-0.5 -1.8,-1.1 l -2.2,-2.2 v 0.1 c -0.5,-0.2 -0.9,-0.4 -1.2,-0.7 -0.3,-0.3 -0.6,-0.6 -0.9,-1.1 L 1323,41.2 v 23.6 c 0,1 -0.4,2 -1.1,2.8 -0.7,0.8 -1.5,1.3 -2.3,1.3 h -14.5 c -0.7,0 -1.3,-0.4 -2.1,-1.1 l -2.2,-2.3 v 0.1 c -0.7,-0.3 -1.3,-0.8 -1.8,-1.6 -0.5,-0.8 -0.8,-1.6 -0.8,-2.5 V 10.7 c 0,-0.7 0.2,-1.4 0.7,-2.2 0.5,-0.8 1,-1.4 1.7,-1.7 h 19.3 c 0.7,0 1.3,0.1 2,0.4 0.7,0.2 1.3,0.6 1.8,1.1 V 8 l 3.2,3.6 h -0.1 l 0.7,0.7 19.6,22.8 V 10.5 c 0,-0.7 0.4,-1.5 1.1,-2.4 z m 0.4,31.2 -25.3,-29.3 c -0.3,-0.5 -0.8,-0.9 -1.4,-1.2 -0.6,-0.3 -1.3,-0.4 -2,-0.4 h -19 c -0.3,0.1 -0.6,0.4 -0.8,0.9 -0.2,0.5 -0.4,1 -0.4,1.4 v 50.8 c 0,0.7 0.2,1.4 0.7,1.9 0.5,0.6 1,0.9 1.5,0.9 h 14.4 c 0.5,0 1,-0.3 1.5,-0.9 0.5,-0.6 0.7,-1.2 0.7,-1.9 V 33.4 l 25.2,29.3 c 0.4,0.7 0.9,1.1 1.5,1.3 0.6,0.2 1.3,0.3 2,0.3 h 19 c 0.8,-0.5 1.3,-1.4 1.3,-2.4 V 10.5 c 0,-0.5 -0.2,-1 -0.7,-1.4 -0.4,-0.5 -0.9,-0.7 -1.5,-0.7 h -14.6 c -0.5,0 -1,0.2 -1.5,0.7 -0.5,0.5 -0.7,1 -0.7,1.4 v 28.8 z"
   class="st3" />
</g></g>
</svg>